M48
;Layer_Color=9474304
;FILE_FORMAT=2:5
INCH,TZ
;TYPE=PLATED
T1F00S00C0.00787
%
T01
X555000Y41000
X209000Y35500
X152204Y22177
X149000Y56000
X92500Y45500
X89617Y9617
X99000Y71500
X95500Y80000
X89685Y112247
X101000Y118000
Y145000
X162000Y127500
X157000Y91500
X162000Y76500
X203500Y120000
X223000Y105000
X254000Y104000
X278000Y115500
X287500Y133000
X313000Y116000
X361000Y109500
M30
