G04*
G04 #@! TF.GenerationSoftware,Altium Limited,Altium Designer,22.0.2 (36)*
G04*
G04 Layer_Color=16711935*
%FSLAX25Y25*%
%MOIN*%
G70*
G04*
G04 #@! TF.SameCoordinates,DBB72687-BCFA-4FA8-90DC-81D55A498374*
G04*
G04*
G04 #@! TF.FilePolarity,Negative*
G04*
G01*
G75*
%ADD36R,0.03871X0.04698*%
%ADD43R,0.04698X0.03871*%
%ADD50C,0.06824*%
%ADD51R,0.06706X0.06706*%
%ADD52R,0.07293X0.07293*%
%ADD53C,0.07293*%
%ADD54C,0.03162*%
%ADD55C,0.05800*%
%ADD56C,0.21548*%
G04:AMPARAMS|DCode=81|XSize=44.61mil|YSize=44.61mil|CornerRadius=13.15mil|HoleSize=0mil|Usage=FLASHONLY|Rotation=0.000|XOffset=0mil|YOffset=0mil|HoleType=Round|Shape=RoundedRectangle|*
%AMROUNDEDRECTD81*
21,1,0.04461,0.01831,0,0,0.0*
21,1,0.01831,0.04461,0,0,0.0*
1,1,0.02631,0.00915,-0.00915*
1,1,0.02631,-0.00915,-0.00915*
1,1,0.02631,-0.00915,0.00915*
1,1,0.02631,0.00915,0.00915*
%
%ADD81ROUNDEDRECTD81*%
%ADD82R,0.03989X0.04658*%
D36*
X197744Y35500D02*
D03*
X203256D02*
D03*
X202756Y28000D02*
D03*
X197244D02*
D03*
X222744Y86000D02*
D03*
X228256D02*
D03*
X194256Y96000D02*
D03*
X188744D02*
D03*
X228256Y78000D02*
D03*
X222744D02*
D03*
X190244Y89500D02*
D03*
X195756D02*
D03*
X187756Y63000D02*
D03*
X182244D02*
D03*
X181244Y69000D02*
D03*
X186756D02*
D03*
X190756Y43000D02*
D03*
X185244D02*
D03*
Y50000D02*
D03*
X190756D02*
D03*
D43*
X176000Y41744D02*
D03*
Y47256D02*
D03*
X178000Y86756D02*
D03*
Y81244D02*
D03*
X133500Y60756D02*
D03*
Y55244D02*
D03*
X122500Y60756D02*
D03*
Y55244D02*
D03*
X132000Y97256D02*
D03*
Y91744D02*
D03*
X139000Y97256D02*
D03*
Y91744D02*
D03*
X143000Y135256D02*
D03*
Y129744D02*
D03*
X136000Y134756D02*
D03*
Y129244D02*
D03*
X132893Y23310D02*
D03*
Y17798D02*
D03*
X124893Y23810D02*
D03*
Y18298D02*
D03*
D50*
X436000Y59500D02*
D03*
Y39500D02*
D03*
Y49500D02*
D03*
Y69500D02*
D03*
Y79500D02*
D03*
X566000Y29500D02*
D03*
X556000D02*
D03*
X546000D02*
D03*
X536000D02*
D03*
X526000D02*
D03*
X516000D02*
D03*
X506000D02*
D03*
X496000D02*
D03*
X486000D02*
D03*
X476000D02*
D03*
X466000D02*
D03*
X456000D02*
D03*
X446000D02*
D03*
X436000D02*
D03*
X566000Y89500D02*
D03*
X556000D02*
D03*
X546000D02*
D03*
X536000D02*
D03*
X526000D02*
D03*
X516000D02*
D03*
X506000D02*
D03*
X496000D02*
D03*
X486000D02*
D03*
X476000D02*
D03*
X466000D02*
D03*
X456000D02*
D03*
X446000D02*
D03*
X436000D02*
D03*
D51*
X461500Y138000D02*
D03*
X325500Y110000D02*
D03*
X434000Y135500D02*
D03*
X479000Y118500D02*
D03*
X312500Y89000D02*
D03*
X170000Y69000D02*
D03*
X187500Y11500D02*
D03*
D52*
X33110Y48103D02*
D03*
D53*
Y57945D02*
D03*
Y67787D02*
D03*
Y77630D02*
D03*
Y87473D02*
D03*
Y97315D02*
D03*
Y107158D02*
D03*
Y117000D02*
D03*
X23268Y48103D02*
D03*
Y57945D02*
D03*
Y67787D02*
D03*
Y77630D02*
D03*
Y87473D02*
D03*
Y97315D02*
D03*
Y107158D02*
D03*
Y117000D02*
D03*
D54*
X115000Y64000D02*
D03*
X116893Y24054D02*
D03*
X114393Y12054D02*
D03*
X113500Y47000D02*
D03*
X121000Y115500D02*
D03*
X117500Y104000D02*
D03*
X121000Y84500D02*
D03*
X124000Y140500D02*
D03*
X186500Y102500D02*
D03*
D55*
X213500Y84500D02*
D03*
X225000Y38500D02*
D03*
X317265Y26265D02*
D03*
X242500Y39500D02*
D03*
X257000Y50000D02*
D03*
X257500Y41500D02*
D03*
X331000Y24000D02*
D03*
X295000Y36500D02*
D03*
X309000Y28144D02*
D03*
X302500Y33000D02*
D03*
X350178Y121322D02*
D03*
X406500Y95000D02*
D03*
X221500Y60500D02*
D03*
X211500Y104425D02*
D03*
X423500Y69500D02*
D03*
X182500Y75500D02*
D03*
X422000Y97500D02*
D03*
X466000Y100000D02*
D03*
X212322Y61178D02*
D03*
X201000Y83000D02*
D03*
X200500Y68500D02*
D03*
X236000Y101000D02*
D03*
X199500Y58500D02*
D03*
X244000Y64000D02*
D03*
X287500Y41454D02*
D03*
X282500Y54500D02*
D03*
D56*
X628500Y26000D02*
D03*
X33500Y19000D02*
D03*
X36500Y141000D02*
D03*
X628500Y123500D02*
D03*
X532500Y111000D02*
D03*
X533000Y138500D02*
D03*
X232000Y22000D02*
D03*
D81*
X231047Y110000D02*
D03*
X236953D02*
D03*
D82*
X224965Y67000D02*
D03*
X231035D02*
D03*
M02*
