G04*
G04 #@! TF.GenerationSoftware,Altium Limited,Altium Designer,22.0.2 (36)*
G04*
G04 Layer_Physical_Order=2*
G04 Layer_Color=32768*
%FSLAX25Y25*%
%MOIN*%
G70*
G04*
G04 #@! TF.SameCoordinates,DBB72687-BCFA-4FA8-90DC-81D55A498374*
G04*
G04*
G04 #@! TF.FilePolarity,Negative*
G04*
G01*
G75*
%ADD65C,0.04000*%
G04:AMPARAMS|DCode=66|XSize=100.157mil|YSize=100.157mil|CornerRadius=0mil|HoleSize=0mil|Usage=FLASHONLY|Rotation=0.000|XOffset=0mil|YOffset=0mil|HoleType=Round|Shape=Relief|Width=10mil|Gap=10mil|Entries=4|*
%AMTHD66*
7,0,0,0.10016,0.08016,0.01000,45*
%
%ADD66THD66*%
%ADD67C,0.07543*%
%ADD68C,0.08724*%
G04:AMPARAMS|DCode=69|XSize=107.244mil|YSize=107.244mil|CornerRadius=0mil|HoleSize=0mil|Usage=FLASHONLY|Rotation=0.000|XOffset=0mil|YOffset=0mil|HoleType=Round|Shape=Relief|Width=10mil|Gap=10mil|Entries=4|*
%AMTHD69*
7,0,0,0.10724,0.08724,0.01000,45*
%
%ADD69THD69*%
%ADD70C,0.08016*%
G04:AMPARAMS|DCode=71|XSize=95.433mil|YSize=95.433mil|CornerRadius=0mil|HoleSize=0mil|Usage=FLASHONLY|Rotation=0.000|XOffset=0mil|YOffset=0mil|HoleType=Round|Shape=Relief|Width=10mil|Gap=10mil|Entries=4|*
%AMTHD71*
7,0,0,0.09543,0.07543,0.01000,45*
%
%ADD71THD71*%
%ADD72C,0.04787*%
%ADD73C,0.06800*%
%ADD74C,0.06799*%
G04:AMPARAMS|DCode=75|XSize=67.874mil|YSize=67.874mil|CornerRadius=0mil|HoleSize=0mil|Usage=FLASHONLY|Rotation=0.000|XOffset=0mil|YOffset=0mil|HoleType=Round|Shape=Relief|Width=10mil|Gap=10mil|Entries=4|*
%AMTHD75*
7,0,0,0.06787,0.04787,0.01000,45*
%
%ADD75THD75*%
%ADD76C,0.16598*%
G04:AMPARAMS|DCode=77|XSize=185.984mil|YSize=185.984mil|CornerRadius=0mil|HoleSize=0mil|Usage=FLASHONLY|Rotation=0.000|XOffset=0mil|YOffset=0mil|HoleType=Round|Shape=Relief|Width=10mil|Gap=10mil|Entries=4|*
%AMTHD77*
7,0,0,0.18598,0.16598,0.01000,45*
%
%ADD77THD77*%
D65*
X500Y3937D02*
X4437Y0D01*
X646169D01*
X650106Y3937D01*
Y153543D01*
X646169Y157480D02*
X650106Y153543D01*
X4437Y157480D02*
X646169D01*
X500Y153543D02*
X4437Y157480D01*
X500Y3937D02*
Y153543D01*
D66*
X436000Y59500D02*
D03*
X556000Y29500D02*
D03*
D67*
X461500Y138000D02*
D03*
X325500Y110000D02*
D03*
X434000Y135500D02*
D03*
X170000Y69000D02*
D03*
D68*
X33110Y48103D02*
D03*
Y57945D02*
D03*
Y67787D02*
D03*
Y77630D02*
D03*
Y87473D02*
D03*
Y97315D02*
D03*
Y107158D02*
D03*
Y117000D02*
D03*
X23268Y57945D02*
D03*
Y77630D02*
D03*
Y97315D02*
D03*
Y117000D02*
D03*
D69*
Y48103D02*
D03*
Y67787D02*
D03*
Y87473D02*
D03*
Y107158D02*
D03*
D70*
X436000Y39500D02*
D03*
Y49500D02*
D03*
Y69500D02*
D03*
Y79500D02*
D03*
X566000Y29500D02*
D03*
X546000D02*
D03*
X536000D02*
D03*
X526000D02*
D03*
X516000D02*
D03*
X506000D02*
D03*
X496000D02*
D03*
X486000D02*
D03*
X476000D02*
D03*
X466000D02*
D03*
X456000D02*
D03*
X446000D02*
D03*
X436000D02*
D03*
X566000Y89500D02*
D03*
X556000D02*
D03*
X546000D02*
D03*
X536000D02*
D03*
X526000D02*
D03*
X516000D02*
D03*
X506000D02*
D03*
X496000D02*
D03*
X486000D02*
D03*
X476000D02*
D03*
X466000D02*
D03*
X456000D02*
D03*
X446000D02*
D03*
X436000D02*
D03*
D71*
X479000Y118500D02*
D03*
X312500Y89000D02*
D03*
X187500Y11500D02*
D03*
D72*
X207500Y77500D02*
D03*
X110000Y71500D02*
D03*
X262500Y140000D02*
D03*
X362500Y132500D02*
D03*
X566000Y41000D02*
D03*
X110000Y34000D02*
D03*
X195000Y145000D02*
D03*
X116500Y142500D02*
D03*
X100500Y107000D02*
D03*
X210500Y68000D02*
D03*
D73*
X213500Y84500D02*
D03*
X317265Y26265D02*
D03*
X242500Y39500D02*
D03*
X257000Y50000D02*
D03*
X257500Y41500D02*
D03*
X331000Y24000D02*
D03*
X295000Y36500D02*
D03*
X309000Y28144D02*
D03*
X302500Y33000D02*
D03*
X350178Y121322D02*
D03*
X406500Y95000D02*
D03*
X221500Y60500D02*
D03*
X211500Y104425D02*
D03*
X423500Y69500D02*
D03*
X182500Y75500D02*
D03*
X422000Y97500D02*
D03*
X466000Y100000D02*
D03*
X212322Y61178D02*
D03*
X201000Y83000D02*
D03*
X200500Y68500D02*
D03*
X236000Y101000D02*
D03*
X199500Y58500D02*
D03*
X244000Y64000D02*
D03*
X287500Y41454D02*
D03*
X282500Y54500D02*
D03*
D74*
X225000Y38500D02*
D03*
D75*
X101000Y145000D02*
D03*
X223000Y105000D02*
D03*
X89617Y9617D02*
D03*
X287500Y133000D02*
D03*
X361000Y109500D02*
D03*
X313000Y116000D02*
D03*
X278000Y115500D02*
D03*
X101000Y118000D02*
D03*
X555000Y41000D02*
D03*
X92500Y45500D02*
D03*
X99000Y71500D02*
D03*
X152204Y22177D02*
D03*
X203500Y120000D02*
D03*
X114393Y12054D02*
D03*
X113500Y47000D02*
D03*
X121000Y115500D02*
D03*
X149000Y56000D02*
D03*
X157000Y91500D02*
D03*
X121000Y84500D02*
D03*
X162000Y127500D02*
D03*
X95500Y80000D02*
D03*
X89685Y112247D02*
D03*
X209000Y35500D02*
D03*
X186500Y102500D02*
D03*
X254000Y104000D02*
D03*
X162000Y76500D02*
D03*
D76*
X628500Y26000D02*
D03*
Y123500D02*
D03*
X533000Y138500D02*
D03*
D77*
X33500Y19000D02*
D03*
X36500Y141000D02*
D03*
X532500Y111000D02*
D03*
X232000Y22000D02*
D03*
M02*
