G04*
G04 #@! TF.GenerationSoftware,Altium Limited,Altium Designer,22.0.2 (36)*
G04*
G04 Layer_Color=32768*
%FSLAX25Y25*%
%MOIN*%
G70*
G04*
G04 #@! TF.SameCoordinates,DBB72687-BCFA-4FA8-90DC-81D55A498374*
G04*
G04*
G04 #@! TF.FilePolarity,Positive*
G04*
G01*
G75*
%ADD13C,0.00600*%
%ADD14C,0.00500*%
%ADD83C,0.00394*%
%ADD88C,0.00197*%
%ADD89C,0.00200*%
G36*
X263844Y106843D02*
Y108043D01*
X291156D01*
Y106843D01*
X292280D01*
Y85158D01*
X291156D01*
Y83957D01*
X263844D01*
Y85158D01*
X262720D01*
Y106843D01*
X263844D01*
D02*
G37*
G36*
X296200Y142600D02*
X302100D01*
Y123400D01*
X296200D01*
Y122350D01*
X278800D01*
Y123400D01*
X272900D01*
Y142600D01*
X278800D01*
Y143650D01*
X296200D01*
Y142600D01*
D02*
G37*
D13*
X263844Y108043D02*
X291156D01*
Y106843D02*
Y108043D01*
Y83957D02*
Y85158D01*
X263844Y83957D02*
X291156D01*
X263844D02*
Y85158D01*
Y106843D02*
Y108043D01*
X262720Y106843D02*
X263844D01*
X291156D02*
X292280D01*
Y85158D02*
Y106843D01*
X291156Y85158D02*
X292280D01*
X262720D02*
X263844D01*
X262720D02*
Y106843D01*
X302100Y123400D02*
Y142600D01*
X296200Y123400D02*
X302100D01*
X296200Y122350D02*
Y123400D01*
X278800Y122350D02*
X296200D01*
X278800D02*
Y123400D01*
X272900D02*
X278800D01*
X272900D02*
Y142600D01*
X278800D01*
Y143650D01*
X296200D01*
Y142600D02*
Y143650D01*
Y142600D02*
X302100D01*
D14*
X39362Y36331D02*
Y128772D01*
D83*
X328000Y131532D02*
Y135468D01*
X326031Y133500D02*
X329969D01*
X226000Y132531D02*
Y136469D01*
X224031Y134500D02*
X227969D01*
X102786Y56380D02*
Y60317D01*
X100818Y58349D02*
X104755D01*
X105500Y90031D02*
Y93968D01*
X103532Y92000D02*
X107468D01*
X109000Y127032D02*
Y130968D01*
X107032Y129000D02*
X110968D01*
X99393Y19085D02*
Y23022D01*
X97425Y21054D02*
X101362D01*
X376031Y92000D02*
X379969D01*
X378000Y90031D02*
Y93968D01*
X381031Y129500D02*
X384968D01*
X383000Y127532D02*
Y131468D01*
D88*
X197201Y44583D02*
Y49937D01*
X192437D02*
X197201D01*
X192437D02*
Y54701D01*
X187083D02*
X192437D01*
X187083D02*
Y87299D01*
X192437D01*
Y92063D01*
X197201D01*
Y97417D01*
X229799D01*
Y92063D02*
Y97417D01*
Y92063D02*
X234563D01*
Y87299D02*
Y92063D01*
Y87299D02*
X239917D01*
Y54701D02*
Y87299D01*
X234563Y54701D02*
X239917D01*
X234563Y49937D02*
Y54701D01*
X229799Y49937D02*
X234563D01*
X229799Y44583D02*
Y49937D01*
X197201Y44583D02*
X229799D01*
X311465Y121689D02*
X344535D01*
X311465Y145311D02*
X344535D01*
Y121689D02*
Y145311D01*
X311465Y121689D02*
Y145311D01*
X209465Y122689D02*
X242535D01*
X209465Y146311D02*
X242535D01*
Y122689D02*
Y146311D01*
X209465Y122689D02*
Y146311D01*
X88318Y50081D02*
X117255D01*
X88318Y66616D02*
X117255D01*
Y50081D02*
Y66616D01*
X88318Y50081D02*
Y66616D01*
X91031Y83732D02*
X119968D01*
X91031Y100268D02*
X119968D01*
Y83732D02*
Y100268D01*
X91031Y83732D02*
Y100268D01*
X94532Y120732D02*
X123468D01*
X94532Y137268D02*
X123468D01*
Y120732D02*
Y137268D01*
X94532Y120732D02*
Y137268D01*
X84925Y12786D02*
X113862D01*
X84925Y29322D02*
X113862D01*
Y12786D02*
Y29322D01*
X84925Y12786D02*
Y29322D01*
X228213Y107165D02*
X239787D01*
Y112835D01*
X228213D02*
X239787D01*
X228213Y107165D02*
Y112835D01*
X195618Y32941D02*
X205382D01*
Y38059D01*
X195618D02*
X205382D01*
X195618Y32941D02*
Y38059D01*
X195118Y30559D02*
X204882D01*
X195118Y25441D02*
Y30559D01*
Y25441D02*
X204882D01*
Y30559D01*
X220618Y83441D02*
X230382D01*
Y88559D01*
X220618D02*
X230382D01*
X220618Y83441D02*
Y88559D01*
X186618Y98559D02*
X196382D01*
X186618Y93441D02*
Y98559D01*
Y93441D02*
X196382D01*
Y98559D01*
X220618Y80559D02*
X230382D01*
X220618Y75441D02*
Y80559D01*
Y75441D02*
X230382D01*
Y80559D01*
X188118Y86941D02*
X197882D01*
Y92059D01*
X188118D02*
X197882D01*
X188118Y86941D02*
Y92059D01*
X180118Y65559D02*
X189882D01*
X180118Y60441D02*
Y65559D01*
Y60441D02*
X189882D01*
Y65559D01*
X179118Y66441D02*
X188882D01*
Y71559D01*
X179118D02*
X188882D01*
X179118Y66441D02*
Y71559D01*
X178559Y39618D02*
Y49382D01*
X173441D02*
X178559D01*
X173441Y39618D02*
Y49382D01*
Y39618D02*
X178559D01*
X183118Y45559D02*
X192882D01*
X183118Y40441D02*
Y45559D01*
Y40441D02*
X192882D01*
Y45559D01*
X183118Y47441D02*
X192882D01*
Y52559D01*
X183118D02*
X192882D01*
X183118Y47441D02*
Y52559D01*
X175441Y79118D02*
Y88882D01*
Y79118D02*
X180559D01*
Y88882D01*
X175441D02*
X180559D01*
X353559Y130118D02*
Y139882D01*
X348441Y130118D02*
X353559D01*
X348441D02*
Y139882D01*
X353559D01*
X193543Y128618D02*
Y138382D01*
X198661D01*
Y128618D02*
Y138382D01*
X193543Y128618D02*
X198661D01*
X206059Y128118D02*
Y137882D01*
X200941Y128118D02*
X206059D01*
X200941D02*
Y137882D01*
X206059D01*
X249118Y121059D02*
X258882D01*
Y115941D02*
Y121059D01*
X249118Y115941D02*
X258882D01*
X249118D02*
Y121059D01*
Y124441D02*
X258882D01*
X249118D02*
Y129559D01*
X258882D01*
Y124441D02*
Y129559D01*
X130941Y53118D02*
Y62882D01*
Y53118D02*
X136059D01*
Y62882D01*
X130941D02*
X136059D01*
X119941Y53118D02*
Y62882D01*
Y53118D02*
X125059D01*
Y62882D01*
X119941D02*
X125059D01*
X129441Y89618D02*
Y99382D01*
Y89618D02*
X134559D01*
Y99382D01*
X129441D02*
X134559D01*
X136441Y89618D02*
Y99382D01*
Y89618D02*
X141559D01*
Y99382D01*
X136441D02*
X141559D01*
X140441Y127618D02*
Y137382D01*
Y127618D02*
X145559D01*
Y137382D01*
X140441D02*
X145559D01*
X133441Y127118D02*
Y136882D01*
Y127118D02*
X138559D01*
Y136882D01*
X133441D02*
X138559D01*
X130334Y15672D02*
Y25436D01*
Y15672D02*
X135452D01*
Y25436D01*
X130334D02*
X135452D01*
X122334Y16172D02*
Y25936D01*
Y16172D02*
X127452D01*
Y25936D01*
X122334D02*
X127452D01*
X388827Y86291D02*
Y97709D01*
X367173Y86291D02*
Y97709D01*
Y86291D02*
X388827D01*
X367173Y97709D02*
X388827D01*
X392787Y72339D02*
X406213D01*
X392787Y91661D02*
X406213D01*
Y72339D02*
Y91661D01*
X392787Y72339D02*
Y91661D01*
X342287Y76839D02*
X355713D01*
X342287Y96161D02*
X355713D01*
Y76839D02*
Y96161D01*
X342287Y76839D02*
Y96161D01*
X366661Y117689D02*
Y141311D01*
X399339Y117689D02*
Y141311D01*
X366661D02*
X399339D01*
X366661Y117689D02*
X399339D01*
X430016Y95484D02*
X574740D01*
X430016Y23516D02*
Y95484D01*
Y23516D02*
X574740D01*
Y95484D01*
X372882Y105256D02*
X383118D01*
Y99744D02*
Y105256D01*
X372882Y99744D02*
X383118D01*
X372882D02*
Y105256D01*
X222390Y64087D02*
Y69913D01*
X233610Y64087D02*
Y69913D01*
X222390D02*
X233610D01*
X222390Y64087D02*
X233610D01*
X307268Y67185D02*
Y72815D01*
X295732Y67185D02*
Y72815D01*
X307268D01*
X295732Y67185D02*
X307268D01*
X407185Y137768D02*
X412815D01*
X407185Y126232D02*
X412815D01*
X407185D02*
Y137768D01*
X412815Y126232D02*
Y137768D01*
X414185Y119232D02*
X419815D01*
X414185Y130768D02*
X419815D01*
Y119232D02*
Y130768D01*
X414185Y119232D02*
Y130768D01*
X132768Y50185D02*
Y55815D01*
X121232Y50185D02*
Y55815D01*
X132768D01*
X121232Y50185D02*
X132768D01*
X138768Y85185D02*
Y90815D01*
X127232Y85185D02*
Y90815D01*
X138768D01*
X127232Y85185D02*
X138768D01*
X80185Y53268D02*
X85815D01*
X80185Y41732D02*
X85815D01*
X80185D02*
Y53268D01*
X85815Y41732D02*
Y53268D01*
X89539Y83185D02*
Y88815D01*
X78004Y83185D02*
Y88815D01*
X89539D01*
X78004Y83185D02*
X89539D01*
X138268Y96685D02*
Y102315D01*
X126732Y96685D02*
Y102315D01*
X138268D01*
X126732Y96685D02*
X138268D01*
X132768Y58185D02*
Y63815D01*
X121232Y58185D02*
Y63815D01*
X132768D01*
X121232Y58185D02*
X132768D01*
X81732Y68685D02*
Y74315D01*
X93268Y68685D02*
Y74315D01*
X81732Y68685D02*
X93268D01*
X81732Y74315D02*
X93268D01*
X90268Y102185D02*
Y107815D01*
X78732Y102185D02*
Y107815D01*
X90268D01*
X78732Y102185D02*
X90268D01*
X77732Y122685D02*
Y128315D01*
X89268Y122685D02*
Y128315D01*
X77732Y122685D02*
X89268D01*
X77732Y128315D02*
X89268D01*
X138161Y13239D02*
Y18869D01*
X126626Y13239D02*
Y18869D01*
X138161D01*
X126626Y13239D02*
X138161D01*
X143268Y123685D02*
Y129315D01*
X131732Y123685D02*
Y129315D01*
X143268D01*
X131732Y123685D02*
X143268D01*
X77185Y22768D02*
X82815D01*
X77185Y11232D02*
X82815D01*
X77185D02*
Y22768D01*
X82815Y11232D02*
Y22768D01*
X143268Y131685D02*
Y137315D01*
X131732Y131685D02*
Y137315D01*
X143268D01*
X131732Y131685D02*
X143268D01*
X136889Y24739D02*
Y30369D01*
X125354Y24739D02*
Y30369D01*
X136889D01*
X125354Y24739D02*
X136889D01*
X74625Y31739D02*
Y37369D01*
X86161Y31739D02*
Y37369D01*
X74625Y31739D02*
X86161D01*
X74625Y37369D02*
X86161D01*
X77232Y136185D02*
Y141815D01*
X88768Y136185D02*
Y141815D01*
X77232Y136185D02*
X88768D01*
X77232Y141815D02*
X88768D01*
X425232Y106185D02*
Y111815D01*
X436768Y106185D02*
Y111815D01*
X425232Y106185D02*
X436768D01*
X425232Y111815D02*
X436768D01*
D89*
X293413Y112917D02*
X306587D01*
X293413D02*
Y119083D01*
X306587D01*
Y112917D02*
Y119083D01*
X269083Y121413D02*
Y134587D01*
X262917Y121413D02*
X269083D01*
X262917D02*
Y134587D01*
X269083D01*
X147913Y81417D02*
X161087D01*
X147913D02*
Y87583D01*
X161087D01*
Y81417D02*
Y87583D01*
X138913Y44417D02*
X152087D01*
X138913D02*
Y50583D01*
X152087D01*
Y44417D02*
Y50583D01*
X156417Y49913D02*
Y63087D01*
X162583D01*
Y49913D02*
Y63087D01*
X156417Y49913D02*
X162583D01*
X166917Y91413D02*
Y104587D01*
X173083D01*
Y91413D02*
Y104587D01*
X166917Y91413D02*
X173083D01*
X146913Y103583D02*
X160087D01*
Y97417D02*
Y103583D01*
X146913Y97417D02*
X160087D01*
X146913D02*
Y103583D01*
X139413Y68083D02*
X152587D01*
Y61917D02*
Y68083D01*
X139413Y61917D02*
X152587D01*
X139413D02*
Y68083D01*
X151567Y117917D02*
X164740D01*
X151567D02*
Y124083D01*
X164740D01*
Y117917D02*
Y124083D01*
X142807Y10971D02*
X155980D01*
X142807D02*
Y17137D01*
X155980D01*
Y10971D02*
Y17137D01*
X171417Y122413D02*
Y135587D01*
X177583D01*
Y122413D02*
Y135587D01*
X171417Y122413D02*
X177583D01*
X161811Y14467D02*
Y27641D01*
X167976D01*
Y14467D02*
Y27641D01*
X161811Y14467D02*
X167976D01*
X150067Y139083D02*
X163240D01*
Y132917D02*
Y139083D01*
X150067Y132917D02*
X163240D01*
X150067D02*
Y139083D01*
X141913Y33083D02*
X155087D01*
Y26917D02*
Y33083D01*
X141913Y26917D02*
X155087D01*
X141913D02*
Y33083D01*
M02*
