G04*
G04 #@! TF.GenerationSoftware,Altium Limited,Altium Designer,22.0.2 (36)*
G04*
G04 Layer_Color=128*
%FSLAX25Y25*%
%MOIN*%
G70*
G04*
G04 #@! TF.SameCoordinates,DBB72687-BCFA-4FA8-90DC-81D55A498374*
G04*
G04*
G04 #@! TF.FilePolarity,Positive*
G04*
G01*
G75*
%ADD89C,0.00200*%
D89*
X433992Y59500D02*
X438008D01*
X436000Y57492D02*
Y61508D01*
X459728Y138000D02*
X463272D01*
X461500Y136228D02*
Y139772D01*
X30748Y48103D02*
X35472D01*
X33110Y45740D02*
Y50465D01*
X30748Y57945D02*
X35472D01*
X33110Y55583D02*
Y60307D01*
X30748Y67787D02*
X35472D01*
X33110Y65425D02*
Y70150D01*
X30748Y77630D02*
X35472D01*
X33110Y75268D02*
Y79992D01*
X30748Y87473D02*
X35472D01*
X33110Y85110D02*
Y89835D01*
X30748Y97315D02*
X35472D01*
X33110Y94953D02*
Y99677D01*
X30748Y107158D02*
X35472D01*
X33110Y104795D02*
Y109520D01*
X30748Y117000D02*
X35472D01*
X33110Y114638D02*
Y119362D01*
X20906Y48103D02*
X25630D01*
X23268Y45740D02*
Y50465D01*
X20906Y57945D02*
X25630D01*
X23268Y55583D02*
Y60307D01*
X20906Y67787D02*
X25630D01*
X23268Y65425D02*
Y70150D01*
X20906Y77630D02*
X25630D01*
X23268Y75268D02*
Y79992D01*
X20906Y87473D02*
X25630D01*
X23268Y85110D02*
Y89835D01*
X20906Y97315D02*
X25630D01*
X23268Y94953D02*
Y99677D01*
X20906Y107158D02*
X25630D01*
X23268Y104795D02*
Y109520D01*
X20906Y117000D02*
X25630D01*
X23268Y114638D02*
Y119362D01*
X433992Y39500D02*
X438008D01*
X436000Y37492D02*
Y41508D01*
X433992Y49500D02*
X438008D01*
X436000Y47492D02*
Y51508D01*
X433992Y69500D02*
X438008D01*
X436000Y67492D02*
Y71508D01*
X433992Y79500D02*
X438008D01*
X436000Y77492D02*
Y81508D01*
X563992Y29500D02*
X568008D01*
X566000Y27492D02*
Y31508D01*
X553992Y29500D02*
X558008D01*
X556000Y27492D02*
Y31508D01*
X543992Y29500D02*
X548008D01*
X546000Y27492D02*
Y31508D01*
X533992Y29500D02*
X538008D01*
X536000Y27492D02*
Y31508D01*
X523992Y29500D02*
X528008D01*
X526000Y27492D02*
Y31508D01*
X513992Y29500D02*
X518008D01*
X516000Y27492D02*
Y31508D01*
X503992Y29500D02*
X508008D01*
X506000Y27492D02*
Y31508D01*
X493992Y29500D02*
X498008D01*
X496000Y27492D02*
Y31508D01*
X483992Y29500D02*
X488008D01*
X486000Y27492D02*
Y31508D01*
X473992Y29500D02*
X478008D01*
X476000Y27492D02*
Y31508D01*
X463992Y29500D02*
X468008D01*
X466000Y27492D02*
Y31508D01*
X453992Y29500D02*
X458008D01*
X456000Y27492D02*
Y31508D01*
X443992Y29500D02*
X448008D01*
X446000Y27492D02*
Y31508D01*
X433992Y29500D02*
X438008D01*
X436000Y27492D02*
Y31508D01*
X563992Y89500D02*
X568008D01*
X566000Y87492D02*
Y91508D01*
X553992Y89500D02*
X558008D01*
X556000Y87492D02*
Y91508D01*
X543992Y89500D02*
X548008D01*
X546000Y87492D02*
Y91508D01*
X533992Y89500D02*
X538008D01*
X536000Y87492D02*
Y91508D01*
X523992Y89500D02*
X528008D01*
X526000Y87492D02*
Y91508D01*
X513992Y89500D02*
X518008D01*
X516000Y87492D02*
Y91508D01*
X503992Y89500D02*
X508008D01*
X506000Y87492D02*
Y91508D01*
X493992Y89500D02*
X498008D01*
X496000Y87492D02*
Y91508D01*
X483992Y89500D02*
X488008D01*
X486000Y87492D02*
Y91508D01*
X473992Y89500D02*
X478008D01*
X476000Y87492D02*
Y91508D01*
X463992Y89500D02*
X468008D01*
X466000Y87492D02*
Y91508D01*
X453992Y89500D02*
X458008D01*
X456000Y87492D02*
Y91508D01*
X443992Y89500D02*
X448008D01*
X446000Y87492D02*
Y91508D01*
X433992Y89500D02*
X438008D01*
X436000Y87492D02*
Y91508D01*
X323728Y110000D02*
X327272D01*
X325500Y108228D02*
Y111772D01*
X432228Y135500D02*
X435772D01*
X434000Y133728D02*
Y137272D01*
X477228Y118500D02*
X480772D01*
X479000Y116728D02*
Y120272D01*
X310728Y89000D02*
X314272D01*
X312500Y87228D02*
Y90772D01*
X168228Y69000D02*
X171772D01*
X170000Y67228D02*
Y70772D01*
X185728Y11500D02*
X189272D01*
X187500Y9728D02*
Y13272D01*
X212100Y84500D02*
X214900D01*
X213500Y83100D02*
Y85900D01*
X223600Y38500D02*
X226400D01*
X225000Y37100D02*
Y39900D01*
X315865Y26265D02*
X318665D01*
X317265Y24865D02*
Y27665D01*
X241100Y39500D02*
X243900D01*
X242500Y38100D02*
Y40900D01*
X255600Y50000D02*
X258400D01*
X257000Y48600D02*
Y51400D01*
X256100Y41500D02*
X258900D01*
X257500Y40100D02*
Y42900D01*
X329600Y24000D02*
X332400D01*
X331000Y22600D02*
Y25400D01*
X622201Y26000D02*
X634799D01*
X628500Y19701D02*
Y32299D01*
X27201Y19000D02*
X39799D01*
X33500Y12701D02*
Y25299D01*
X30201Y141000D02*
X42799D01*
X36500Y134701D02*
Y147299D01*
X293600Y36500D02*
X296400D01*
X295000Y35100D02*
Y37900D01*
X307600Y28144D02*
X310400D01*
X309000Y26744D02*
Y29544D01*
X301100Y33000D02*
X303900D01*
X302500Y31600D02*
Y34400D01*
X348778Y121322D02*
X351578D01*
X350178Y119922D02*
Y122722D01*
X622201Y123500D02*
X634799D01*
X628500Y117201D02*
Y129799D01*
X526201Y111000D02*
X538799D01*
X532500Y104701D02*
Y117299D01*
X405100Y95000D02*
X407900D01*
X406500Y93600D02*
Y96400D01*
X220100Y60500D02*
X222900D01*
X221500Y59100D02*
Y61900D01*
X210100Y104425D02*
X212900D01*
X211500Y103025D02*
Y105825D01*
X422100Y69500D02*
X424900D01*
X423500Y68100D02*
Y70900D01*
X526701Y138500D02*
X539299D01*
X533000Y132201D02*
Y144799D01*
X181100Y75500D02*
X183900D01*
X182500Y74100D02*
Y76900D01*
X225701Y22000D02*
X238299D01*
X232000Y15701D02*
Y28299D01*
X420600Y97500D02*
X423400D01*
X422000Y96100D02*
Y98900D01*
X464600Y100000D02*
X467400D01*
X466000Y98600D02*
Y101400D01*
X210922Y61178D02*
X213722D01*
X212322Y59778D02*
Y62578D01*
X199600Y83000D02*
X202400D01*
X201000Y81600D02*
Y84400D01*
X199100Y68500D02*
X201900D01*
X200500Y67100D02*
Y69900D01*
X234600Y101000D02*
X237400D01*
X236000Y99600D02*
Y102400D01*
X198100Y58500D02*
X200900D01*
X199500Y57100D02*
Y59900D01*
X242600Y64000D02*
X245400D01*
X244000Y62600D02*
Y65400D01*
X286100Y41454D02*
X288900D01*
X287500Y40054D02*
Y42854D01*
X281100Y54500D02*
X283900D01*
X282500Y53100D02*
Y55900D01*
M02*
