G04*
G04 #@! TF.GenerationSoftware,Altium Limited,Altium Designer,22.0.2 (36)*
G04*
G04 Layer_Physical_Order=1*
G04 Layer_Color=255*
%FSLAX25Y25*%
%MOIN*%
G70*
G04*
G04 #@! TF.SameCoordinates,DBB72687-BCFA-4FA8-90DC-81D55A498374*
G04*
G04*
G04 #@! TF.FilePolarity,Positive*
G04*
G01*
G75*
%ADD15C,0.01000*%
%ADD16R,0.03071X0.03898*%
G04:AMPARAMS|DCode=17|XSize=61.42mil|YSize=11.02mil|CornerRadius=1.38mil|HoleSize=0mil|Usage=FLASHONLY|Rotation=0.000|XOffset=0mil|YOffset=0mil|HoleType=Round|Shape=RoundedRectangle|*
%AMROUNDEDRECTD17*
21,1,0.06142,0.00827,0,0,0.0*
21,1,0.05866,0.01102,0,0,0.0*
1,1,0.00276,0.02933,-0.00413*
1,1,0.00276,-0.02933,-0.00413*
1,1,0.00276,-0.02933,0.00413*
1,1,0.00276,0.02933,0.00413*
%
%ADD17ROUNDEDRECTD17*%
%ADD18O,0.09843X0.02756*%
G04:AMPARAMS|DCode=19|XSize=61.42mil|YSize=11.02mil|CornerRadius=1.38mil|HoleSize=0mil|Usage=FLASHONLY|Rotation=270.000|XOffset=0mil|YOffset=0mil|HoleType=Round|Shape=RoundedRectangle|*
%AMROUNDEDRECTD19*
21,1,0.06142,0.00827,0,0,270.0*
21,1,0.05866,0.01102,0,0,270.0*
1,1,0.00276,-0.00413,-0.02933*
1,1,0.00276,-0.00413,0.02933*
1,1,0.00276,0.00413,0.02933*
1,1,0.00276,0.00413,-0.02933*
%
%ADD19ROUNDEDRECTD19*%
%ADD20O,0.08268X0.01772*%
%ADD21R,0.04331X0.03937*%
%ADD22R,0.03937X0.04331*%
%ADD23R,0.03898X0.03071*%
%ADD24R,0.05906X0.07480*%
%ADD25R,0.11457X0.05591*%
G04:AMPARAMS|DCode=26|XSize=25.59mil|YSize=64.96mil|CornerRadius=1.92mil|HoleSize=0mil|Usage=FLASHONLY|Rotation=90.000|XOffset=0mil|YOffset=0mil|HoleType=Round|Shape=RoundedRectangle|*
%AMROUNDEDRECTD26*
21,1,0.02559,0.06112,0,0,90.0*
21,1,0.02175,0.06496,0,0,90.0*
1,1,0.00384,0.03056,0.01088*
1,1,0.00384,0.03056,-0.01088*
1,1,0.00384,-0.03056,-0.01088*
1,1,0.00384,-0.03056,0.01088*
%
%ADD26ROUNDEDRECTD26*%
%ADD27R,0.06915X0.02016*%
%ADD28R,0.05312X0.05924*%
%ADD29R,0.08661X0.13780*%
%ADD30R,0.05709X0.02756*%
%ADD31R,0.02559X0.03543*%
%ADD32R,0.03425X0.03661*%
%ADD33R,0.03661X0.03425*%
%ADD34R,0.05900X0.02200*%
%ADD35R,0.09000X0.09000*%
%ADD57C,0.01968*%
%ADD58C,0.06024*%
%ADD59R,0.05906X0.05906*%
%ADD60R,0.06693X0.06693*%
%ADD61C,0.06693*%
%ADD62C,0.02362*%
%ADD63C,0.05000*%
%ADD64C,0.20748*%
D15*
X206981Y77761D02*
X207110Y77890D01*
X204693Y89918D02*
X207500Y87111D01*
X191138Y77890D02*
X206742D01*
X206739Y77761D02*
X206981D01*
X207131Y77500D02*
X207500D01*
X206742Y77890D02*
X207131Y77500D01*
X207500Y77890D02*
Y87111D01*
X201500Y83000D02*
X206739Y77761D01*
X201000Y83000D02*
X201500D01*
X208630Y89370D02*
X213500Y84500D01*
X362500Y132500D02*
X367000Y137000D01*
X362356Y132356D02*
X362500Y132500D01*
X265500Y131543D02*
X273857Y139900D01*
X265500Y131346D02*
Y131543D01*
Y131346D02*
X266347Y130500D01*
X196102Y136051D02*
X203500D01*
X87283Y144698D02*
X87869Y145283D01*
X100716D02*
X101000Y145000D01*
X87283Y140055D02*
Y144698D01*
X87869Y145283D02*
X100716D01*
X351118Y138051D02*
X355500Y133669D01*
X350178Y121678D02*
X355500Y127000D01*
Y133669D01*
X430175Y105882D02*
X430175D01*
X428500Y78000D02*
Y104207D01*
X430175Y105882D01*
X430175D02*
X430929Y106636D01*
X419260Y112118D02*
X430175D01*
X430929Y106636D02*
Y111364D01*
X430175Y112118D02*
X430929Y111364D01*
X235646Y132000D02*
X252169D01*
X257051Y127118D01*
Y118795D02*
Y127000D01*
X256756Y118500D02*
X257000Y118256D01*
X256756Y118500D02*
X257051Y118795D01*
X257000Y113586D02*
Y118256D01*
X257051Y127000D02*
Y127118D01*
X256414Y113000D02*
X257000Y113586D01*
X218500Y113000D02*
X256414D01*
X212500Y107000D02*
X218500Y113000D01*
X208579Y93362D02*
X208630Y93311D01*
X211547Y55000D02*
X216000D01*
X208709Y52161D02*
X211547Y55000D01*
X208709Y51602D02*
Y52161D01*
X208630Y51523D02*
X208709Y51602D01*
X208630Y48689D02*
Y51523D01*
X208579Y48638D02*
X208630Y48689D01*
Y89370D02*
Y93311D01*
X216000Y55000D02*
X221500Y60500D01*
X266000Y124457D02*
X274191Y116265D01*
X277235D02*
X278000Y115500D01*
X279000Y116500D01*
X265500Y124457D02*
X266000D01*
X274191Y116265D02*
X277235D01*
X279000Y116500D02*
X287500Y125000D01*
X296153Y116500D02*
X297153Y115500D01*
X287500Y125000D02*
Y133000D01*
X279000Y116500D02*
X296153D01*
X423500Y69500D02*
X436000D01*
X87783Y123333D02*
Y124445D01*
X93116Y118000D02*
X101000D01*
X86728Y125500D02*
X87783Y124445D01*
Y123333D02*
X93116Y118000D01*
X86728Y125500D02*
X87067Y125161D01*
X100634D01*
X81327Y126555D02*
Y128827D01*
X80272Y125500D02*
X81327Y126555D01*
X91515Y127720D02*
X100634D01*
X88905Y130331D02*
X91515Y127720D01*
X82831Y130331D02*
X88905D01*
X81327Y128827D02*
X82831Y130331D01*
X53158Y127000D02*
X66102D01*
X66272Y126831D01*
X79216D01*
X80272Y125776D01*
Y125500D02*
Y125776D01*
X33315Y107158D02*
X53158Y127000D01*
X33110Y107158D02*
X33315D01*
X394122Y132000D02*
X396091D01*
X410000Y128772D02*
X410728Y129500D01*
X415453D01*
X415728D02*
X417000Y128228D01*
X415728Y129500D02*
X417000Y128228D01*
X415453Y129500D02*
X415728D01*
X410000Y135228D02*
X410327Y134902D01*
X394122Y122000D02*
X402953D01*
X409724Y128772D01*
X410000D01*
X461500Y138000D02*
X462000Y138500D01*
X480047Y119547D02*
X523953D01*
X479000Y118500D02*
X480047Y119547D01*
X523953D02*
X532500Y111000D01*
X434357Y122129D02*
X454864D01*
X456040Y120953D01*
X476547D01*
X479000Y118500D01*
X434000Y121772D02*
X434357Y122129D01*
X194582Y70067D02*
X197515Y73000D01*
X191189Y70067D02*
X194582D01*
X191138Y70016D02*
X191189Y70067D01*
X235913Y64059D02*
X243941D01*
X244000Y64000D01*
X167327Y81827D02*
X191138D01*
X162000Y76500D02*
X167327Y81827D01*
X202673Y102500D02*
X206610Y98563D01*
X202673Y102500D02*
Y118091D01*
X203500Y118918D01*
Y120000D01*
X180894Y66079D02*
X191138D01*
X177972Y69000D02*
X180894Y66079D01*
X178597Y60224D02*
X191087D01*
X162000Y65220D02*
Y76500D01*
X165586Y61634D02*
X177187D01*
X178597Y60224D01*
X162000Y65220D02*
X165586Y61634D01*
X195000Y90500D02*
Y104957D01*
X174500Y125457D02*
X175969Y123988D01*
X175969D02*
X195000Y104957D01*
X175969Y123988D02*
X175969D01*
X202673Y93362D02*
Y102500D01*
X200654Y45193D02*
Y48587D01*
X173168Y17707D02*
X200654Y45193D01*
X164893Y17707D02*
X173168D01*
X204772Y52161D02*
X207352Y54741D01*
Y60000D01*
X209000Y35500D02*
Y36377D01*
Y36582D02*
X210547Y38130D01*
Y48638D01*
X209000Y36377D02*
Y36582D01*
Y20086D02*
Y35500D01*
X183500Y70000D02*
X185484Y71984D01*
X173000Y76500D02*
X179500Y70000D01*
X183500D01*
X162000Y76500D02*
X173000D01*
X235862Y79858D02*
X249142D01*
X274500Y54500D02*
X282500D01*
X249142Y79858D02*
X274500Y54500D01*
X235862Y70016D02*
X245984D01*
X287678Y28322D01*
X308822D01*
X309000Y28144D01*
X228264Y48638D02*
X233362D01*
X242500Y39500D01*
X235862Y60173D02*
X246827D01*
X257000Y50000D01*
X248583Y77890D02*
X281230Y45242D01*
X298289D01*
X317265Y26265D01*
X284917Y36500D02*
X295000D01*
X198736Y93362D02*
Y113764D01*
X235862Y75921D02*
X248023D01*
X287242Y41713D02*
X287500Y41454D01*
X282232Y41713D02*
X287242D01*
X248023Y75921D02*
X282232Y41713D01*
X159500Y53350D02*
X160150Y54000D01*
X188567Y56185D02*
X188618Y56236D01*
X160150Y54000D02*
X187162D01*
X188567Y55405D01*
Y56185D01*
X235862Y85764D02*
X265344D01*
X267500Y87920D01*
X235862Y58205D02*
X240375D01*
X257080Y41500D01*
X257500D01*
X235862Y56236D02*
X267598Y24500D01*
X288972D01*
X296972Y16500D01*
X323500D01*
X331000Y24000D01*
X286176Y32713D02*
X302213D01*
X218472Y53914D02*
X219058Y54500D01*
X210000Y73000D02*
X213750Y76750D01*
X224284Y54500D02*
X227000Y57217D01*
X219058Y54500D02*
X224284D01*
X227000Y57217D02*
Y63500D01*
X197515Y73000D02*
X210000D01*
X213750Y76750D02*
X227000Y63500D01*
X216453Y98453D02*
X223000Y105000D01*
X159500Y59847D02*
X176447D01*
X182500Y76582D02*
X185776Y79858D01*
X182500Y75500D02*
Y76582D01*
X204693Y89918D02*
Y93311D01*
X206610Y38767D02*
Y48638D01*
Y38767D02*
X209000Y36377D01*
X224378Y98378D02*
X236500Y110500D01*
X287500D01*
X191138Y64110D02*
X202000D01*
X191138Y62142D02*
X195858D01*
X199500Y58500D01*
X228264Y93362D02*
X243362D01*
X254000Y104000D01*
X253173Y81827D02*
X264059Y70941D01*
X226346Y96807D02*
X230040Y100500D01*
X235500D02*
X236000Y101000D01*
X230040Y100500D02*
X235500D01*
X177882Y96500D02*
X188618Y85764D01*
X191138Y83795D02*
X195709D01*
X196294Y84381D02*
Y85969D01*
X171468Y99681D02*
X182582D01*
X196294Y85969D01*
X195709Y83795D02*
X196294Y84381D01*
X194642Y48638D02*
X198736D01*
X202673Y41827D02*
Y48638D01*
Y41827D02*
X209000Y35500D01*
X212516Y93362D02*
X214484D01*
X191138Y71984D02*
Y73953D01*
X212516Y48638D02*
X214484D01*
X200654Y48587D02*
X200705Y48638D01*
X235862Y64110D02*
X235913Y64059D01*
X204642Y48638D02*
X204693Y48689D01*
Y51523D01*
X204772Y51602D01*
Y52161D01*
X176447Y59847D02*
X178089Y58205D01*
X191138D01*
X206610Y93362D02*
Y98563D01*
X184086Y68047D02*
X191138D01*
X183500Y68633D02*
X184086Y68047D01*
X183500Y68633D02*
Y70000D01*
X218472Y48689D02*
Y53914D01*
X218421Y48638D02*
X218472Y48689D01*
X191087Y60224D02*
X191138Y60173D01*
X210547Y93362D02*
X212516D01*
X195000Y90500D02*
X197586Y87914D01*
X200170D01*
X200756Y88500D01*
Y93311D01*
X200705Y93362D02*
X200756Y93311D01*
X185484Y71984D02*
X191138D01*
X213750Y76750D02*
X224276Y87276D01*
Y93311D01*
X224327Y93362D01*
X235862Y77890D02*
X248583D01*
X218421Y93362D02*
Y97394D01*
X220944Y99916D01*
X221773D01*
X222358Y99331D01*
Y93362D02*
Y99331D01*
X206610Y93362D02*
X206661Y93413D01*
X188618Y56236D02*
X191138D01*
X226295Y93362D02*
X226346Y93413D01*
Y96807D01*
X191138Y73953D02*
Y75921D01*
X185776Y79858D02*
X191138D01*
X210547Y48638D02*
X212516D01*
X216453Y93362D02*
Y98453D01*
X204642Y93362D02*
X204693Y93311D01*
X224327Y93362D02*
X224378Y93413D01*
Y98378D01*
X191087Y75870D02*
X191138Y75921D01*
X188618Y85764D02*
X191138D01*
X235811Y83846D02*
X235862Y83795D01*
X232417Y83846D02*
X235811D01*
X228264Y88000D02*
X232417Y83846D01*
X228264Y88000D02*
Y93362D01*
X214484Y48638D02*
X216453D01*
X214484Y93362D02*
X216453D01*
X235862Y73953D02*
X247464D01*
X284917Y36500D01*
X235862Y71984D02*
X246905D01*
X286176Y32713D01*
X235862Y81827D02*
X253173D01*
X266484Y70941D02*
X267362Y70063D01*
X264059Y70941D02*
X266484D01*
X302213Y32713D02*
X302500Y33000D01*
X180154Y132346D02*
X198736Y113764D01*
X174500Y132346D02*
X180154D01*
X170405Y24400D02*
X194642Y48638D01*
X164893Y24400D02*
X170405D01*
X170000Y101150D02*
X171468Y99681D01*
X170000Y101150D02*
Y101347D01*
X172054Y96500D02*
X177882D01*
X171873Y96319D02*
X172054Y96500D01*
X171468Y96319D02*
X171873D01*
X170000Y94850D02*
X171468Y96319D01*
X170000Y94653D02*
Y94850D01*
X287638Y70063D02*
X298366D01*
X170000Y69000D02*
X177972D01*
X431949Y74551D02*
X437329D01*
X428500Y78000D02*
X431949Y74551D01*
X384083Y106220D02*
X406969D01*
X380854Y102992D02*
X384083Y106220D01*
X416031Y111339D02*
X418480D01*
X419260Y112118D01*
X566000Y29500D02*
Y41000D01*
X555500Y30000D02*
Y40500D01*
Y30000D02*
X556000Y29500D01*
X555000Y41000D02*
X555500Y40500D01*
X447500Y21000D02*
X456000Y29500D01*
X418213Y21586D02*
X418798Y21000D01*
X447500D01*
X418213Y21586D02*
Y103153D01*
X406500Y95000D02*
Y103192D01*
X422000Y97500D02*
Y103979D01*
X406500Y103192D02*
X406969Y103661D01*
X466000Y89500D02*
Y99500D01*
X446000Y29500D02*
Y65881D01*
X437329Y74551D02*
X446000Y65881D01*
X417704Y103661D02*
X418213Y103153D01*
X416031Y103661D02*
X417704D01*
X394122Y137000D02*
X394122Y137000D01*
X394122Y134721D02*
X394122Y134721D01*
Y137000D01*
X394122Y132000D02*
Y134721D01*
X340714Y131000D02*
X341880Y132166D01*
Y132379D02*
X347551Y138051D01*
X351000D01*
X337646Y131000D02*
X340714D01*
X341880Y132166D02*
Y132379D01*
X316269Y118387D02*
X316732D01*
X313000Y116000D02*
X314345D01*
X314579Y116698D02*
X316269Y118387D01*
X314579Y116235D02*
X318765D01*
X314579D02*
Y116698D01*
X316732Y118387D02*
X318354Y120010D01*
X318765Y116235D02*
X319500Y115500D01*
X339000D01*
X318354Y120010D02*
Y126000D01*
X339000Y115500D02*
X351000Y127500D01*
X344212Y110000D02*
X362356Y128144D01*
Y132356D01*
X350178Y121322D02*
Y121678D01*
X351000Y127500D02*
Y131949D01*
X325500Y110000D02*
X344212D01*
X210328Y67828D02*
X210500Y68000D01*
X207352Y64852D02*
X210328Y67828D01*
X420022Y105957D02*
X422000Y103979D01*
X416294Y105957D02*
X420022D01*
X416031Y106220D02*
X416294Y105957D01*
X398614Y88760D02*
X399500Y87874D01*
X386358Y88760D02*
X398614D01*
X383906Y91213D02*
Y92000D01*
Y91213D02*
X386358Y88760D01*
X380854Y95839D02*
Y102500D01*
X383906Y92000D02*
Y92787D01*
X380854Y95839D02*
X383906Y92787D01*
X380854Y102500D02*
Y102992D01*
X363197Y92000D02*
X372094D01*
X361276Y90079D02*
X363197Y92000D01*
X372094Y98957D02*
X375146Y102008D01*
X372094Y92000D02*
Y98957D01*
X375146Y102008D02*
Y102500D01*
Y102992D02*
X380933Y108780D01*
X375146Y102500D02*
Y102992D01*
X349000Y80626D02*
X350414D01*
X352710Y78331D01*
X351295Y90079D02*
X361276D01*
X349000Y92374D02*
X351295Y90079D01*
X380933Y108780D02*
X406969D01*
X351000Y138051D02*
Y140776D01*
X351586Y141362D02*
X432590D01*
X351000Y140776D02*
X351586Y141362D01*
X432590D02*
X434000Y139953D01*
X367000Y137000D02*
X371878D01*
Y132000D02*
X372378Y132500D01*
Y136221D01*
X371878Y136721D02*
X372378Y136221D01*
X371878Y136721D02*
Y137000D01*
X362750Y122750D02*
X371128D01*
X371878Y122000D01*
X361000Y121000D02*
X362750Y122750D01*
X361000Y109500D02*
Y121000D01*
X406969Y116500D02*
Y118969D01*
Y111339D02*
Y116500D01*
X361000Y109500D02*
X368000Y116500D01*
X406969D01*
X415728Y129500D02*
X417000Y128228D01*
X266347Y130500D02*
X276850D01*
X273857Y139900D02*
X276250D01*
X276600Y140250D01*
X287500Y110500D02*
X303261D01*
X303847Y111086D02*
Y115500D01*
X303261Y110500D02*
X303847Y111086D01*
X287500Y104080D02*
Y110500D01*
X294400Y139900D02*
X297550D01*
X287500Y133000D02*
X294400Y139900D01*
X287638Y77937D02*
Y87782D01*
X287500Y87920D02*
X287638Y87782D01*
X264080Y104000D02*
X265038Y103042D01*
X267500Y103774D02*
X269656Y101618D01*
X273669D01*
X277500Y96000D02*
Y97787D01*
X273669Y101618D02*
X277500Y97787D01*
X287500Y104080D02*
X289500Y102080D01*
X287500Y87920D02*
X289500Y89920D01*
Y102080D01*
X265038Y103042D02*
X266462D01*
X267500Y104080D01*
Y103774D02*
Y104080D01*
X254000Y104000D02*
X264080D01*
X303847Y115500D02*
Y119311D01*
X298150Y125500D02*
X300000D01*
X300600Y124900D01*
Y122557D02*
Y124900D01*
Y122557D02*
X303847Y119311D01*
X298150Y125500D02*
Y130500D01*
Y135500D01*
X297550Y139900D02*
X298150Y140500D01*
X264032Y132815D02*
X265500Y131346D01*
X264032Y132815D02*
Y137386D01*
X262500Y138918D02*
X264032Y137386D01*
X262500Y138918D02*
Y140000D01*
X274750Y140250D02*
X276600D01*
X262500Y140000D02*
X262750Y140250D01*
X276850Y125500D02*
Y130500D01*
X351000Y138051D02*
X351118D01*
X79768Y85500D02*
Y87051D01*
X33110Y87473D02*
X33252Y87331D01*
X79488D01*
X79768Y87051D01*
X33315Y117000D02*
X58315Y142000D01*
X33110Y117000D02*
X33315D01*
X77047Y142000D02*
X79772Y139276D01*
X58315Y142000D02*
X77047D01*
X33315Y97315D02*
X41000Y105000D01*
X33110Y97315D02*
X33315D01*
X81224Y105047D02*
X81272Y105000D01*
X67547Y105047D02*
X81224D01*
X67500Y105000D02*
X67547Y105047D01*
X41000Y105000D02*
X67500D01*
X33110Y77528D02*
X44409Y66228D01*
X33110Y77528D02*
Y77630D01*
X44409Y66228D02*
X83772D01*
X33110Y67685D02*
X49012Y51784D01*
X33110Y67685D02*
Y67787D01*
X81945Y51784D02*
X83000Y50728D01*
X49012Y51784D02*
X81945D01*
X33110Y57842D02*
X61627Y29326D01*
X33110Y57842D02*
Y57945D01*
X61627Y29326D02*
X77165D01*
X35957Y41516D02*
X57244Y20228D01*
X35957Y41516D02*
Y45256D01*
X33110Y48103D02*
X35957Y45256D01*
X57244Y20228D02*
X80000D01*
X110000Y62544D02*
X110356Y62187D01*
X110000Y62544D02*
Y71500D01*
X110356Y62187D02*
X111153D01*
X83772Y71000D02*
X84272Y71500D01*
X97001Y66228D02*
X102799Y60430D01*
X83772Y66228D02*
X97001D01*
X83772D02*
Y71000D01*
X82927Y98012D02*
X101282D01*
X81272Y99667D02*
Y104724D01*
Y99667D02*
X82927Y98012D01*
X104782Y135012D02*
X110566Y129228D01*
X79772Y138724D02*
X83484Y135012D01*
X104782D01*
X79772Y138724D02*
Y139000D01*
X407500Y119500D02*
X414453D01*
X406969Y118969D02*
X407500Y119500D01*
X417000Y121772D02*
X434000D01*
X434228Y121543D01*
Y109000D02*
Y121543D01*
X416031Y108780D02*
X427551D01*
X427772Y109000D01*
X314539Y86962D02*
X315539D01*
X312500Y89000D02*
X314539Y86962D01*
X315539Y81086D02*
Y86962D01*
X304571Y70118D02*
X315539Y81086D01*
X304571Y70000D02*
Y70118D01*
X250949Y118500D02*
Y127000D01*
X90000Y41208D02*
Y45500D01*
X434000Y135500D02*
Y139953D01*
X195500Y19500D02*
X208414D01*
X209000Y20086D01*
X187500Y11500D02*
X195500Y19500D01*
X201265Y64845D02*
Y67735D01*
Y64845D02*
X202000Y64110D01*
X203610D01*
X207328Y67828D01*
X200500Y68500D02*
X201265Y67735D01*
X207352Y60000D02*
Y64852D01*
X207328Y67828D02*
X210328D01*
X207352Y60000D02*
X208322Y60970D01*
X212114D02*
X212322Y61178D01*
X208322Y60970D02*
X212114D01*
X298366Y70063D02*
X298429Y70000D01*
X267362Y77937D02*
X287638D01*
X168532Y93185D02*
X170000Y94653D01*
X162000Y127500D02*
Y128582D01*
Y121500D02*
Y127500D01*
X152204Y22177D02*
Y29642D01*
Y14590D02*
Y22177D01*
X250949Y118500D02*
X251244D01*
X206082D02*
X250949D01*
X204582Y120000D02*
X206082Y118500D01*
X203500Y120000D02*
X204582D01*
X159500Y43000D02*
Y53350D01*
X174500Y132346D02*
Y132543D01*
Y125457D02*
Y125654D01*
X196102Y130744D02*
X202705D01*
X193500Y137000D02*
X195358D01*
X196102Y136256D01*
X202705Y130744D02*
X203500Y129949D01*
X87728Y105000D02*
Y109209D01*
X89685Y111165D02*
Y112247D01*
X87728Y109209D02*
X89685Y111165D01*
X86228Y139000D02*
X87283Y140055D01*
X87000Y85724D02*
Y86000D01*
Y85724D02*
X91959Y80765D01*
X94735D01*
X95500Y80000D01*
X97134Y82716D02*
Y88161D01*
X95500Y81082D02*
X97134Y82716D01*
X95500Y80000D02*
Y81082D01*
X84988Y90720D02*
X97134D01*
X110566Y126913D02*
Y129228D01*
Y126913D02*
X112318Y125161D01*
X117366D01*
X101282Y98012D02*
X105500Y93794D01*
Y92765D02*
Y93794D01*
Y92765D02*
X109718Y88547D01*
X110023D01*
X110409Y88161D01*
X113866D01*
X104500Y106918D02*
X111118Y100300D01*
X100582Y106918D02*
X104500D01*
X100500Y107000D02*
X100582Y106918D01*
X155004Y121000D02*
X158472Y117532D01*
X166575D02*
X174500Y125457D01*
X158472Y117532D02*
X166575D01*
X135728Y99500D02*
Y99776D01*
X129272Y99224D02*
Y99500D01*
X121401Y88000D02*
X129772D01*
X123327Y93279D02*
X129272Y99224D01*
X79768Y85500D02*
X84988Y90720D01*
X97134Y93279D02*
X97281Y93132D01*
X97134Y93279D02*
Y95839D01*
X97281Y93132D02*
X102004D01*
X111118Y96195D02*
Y100300D01*
X111475Y95839D02*
X113866D01*
X111118Y96195D02*
X111475Y95839D01*
X113866Y90720D02*
Y93279D01*
X119176Y85776D02*
X121401Y88000D01*
X113866Y93279D02*
X123327D01*
X109361Y85776D02*
X119176D01*
X102004Y93132D02*
X109361Y85776D01*
X111875Y122776D02*
X130823D01*
X161500Y121000D02*
X162000Y121500D01*
X154807Y121000D02*
X155004D01*
X154000Y139914D02*
X154586Y140500D01*
X160000Y130582D02*
Y136000D01*
X173031Y134012D02*
X174500Y132543D01*
X172835Y134012D02*
X173031D01*
X166347Y140500D02*
X172835Y134012D01*
X154586Y140500D02*
X166347D01*
X154000Y136693D02*
Y139914D01*
X154807Y121000D02*
Y124469D01*
X160000Y130582D02*
X162000Y128582D01*
X140728Y126500D02*
X152776D01*
X154807Y124469D01*
X151610Y134500D02*
X153110Y136000D01*
X140728Y134500D02*
X151610D01*
X153307Y136000D02*
X154000Y136693D01*
X153110Y136000D02*
X153307D01*
X150154Y104154D02*
X151969Y105968D01*
X135728Y99500D02*
X149350D01*
X150154Y100500D02*
Y104154D01*
X156846Y100500D02*
X157000Y100347D01*
X151969Y105968D02*
X157633D01*
X162255Y101347D01*
X141636Y88000D02*
X145136Y84500D01*
X136228Y88000D02*
X141636D01*
X145136Y84500D02*
X151154D01*
X151350D02*
X154819Y81032D01*
X160633D01*
X168532Y88930D02*
Y93185D01*
X157000Y85347D02*
Y91500D01*
Y85347D02*
X157846Y84500D01*
X160633Y81032D02*
X168532Y88930D01*
X162255Y101347D02*
X170000D01*
X157000Y91500D02*
Y100347D01*
X100634Y130280D02*
Y132839D01*
X130823Y122776D02*
X134272Y126224D01*
X129204Y134500D02*
X134272D01*
Y126224D02*
Y126500D01*
X116857Y132839D02*
X117366D01*
Y127720D02*
Y130280D01*
X116500Y133195D02*
X116857Y132839D01*
X100634Y130280D02*
X106268D01*
X108779Y127769D01*
Y125872D02*
Y127769D01*
X116500Y133195D02*
Y142500D01*
X108779Y125872D02*
X111875Y122776D01*
X117366Y130280D02*
X124983D01*
X129204Y134500D01*
X87152Y9235D02*
X89235D01*
X83622Y34830D02*
X90000Y41208D01*
X89235Y9235D02*
X90000Y10000D01*
X86465Y8547D02*
X87152Y9235D01*
X85500Y8547D02*
X86465D01*
X90000Y10000D02*
Y16859D01*
X90356Y17215D01*
X91027D01*
X80276Y13772D02*
X85500Y8547D01*
X80000Y20228D02*
X80454Y19774D01*
X91027D01*
X80000Y13772D02*
X80276D01*
X83622Y34554D02*
Y34830D01*
X149000Y47653D02*
Y56000D01*
Y64653D01*
X164893Y24204D02*
Y29554D01*
X144957Y30000D02*
X145350D01*
X147212Y31862D02*
Y33999D01*
X145350Y30000D02*
X147212Y31862D01*
X159862Y34585D02*
X164893Y29554D01*
X147798Y34585D02*
X159862D01*
X147212Y33999D02*
X147798Y34585D01*
X134350Y27554D02*
X142511D01*
X144957Y30000D01*
X151847D02*
X152204Y29642D01*
X87578Y45500D02*
X90000D01*
X92500D01*
X416724Y121772D02*
X417000D01*
X414453Y119500D02*
X416724Y121772D01*
X415453Y129500D02*
X416724Y128228D01*
X212811Y127000D02*
X216354D01*
X206576Y120765D02*
X212811Y127000D01*
X204265Y120765D02*
X206576D01*
X203500Y120000D02*
X204265Y120765D01*
X203500Y120000D02*
Y129949D01*
X193500Y140500D02*
Y142418D01*
X195000Y143918D01*
Y145000D01*
X193500Y137000D02*
Y140500D01*
X213286Y137000D02*
X216354D01*
X212475Y137811D02*
X213286Y137000D01*
X211691Y139122D02*
X212475Y138338D01*
X193500Y140500D02*
X210241D01*
X211619Y139122D01*
X211691D01*
X212475Y137811D02*
Y138338D01*
X114002Y12554D02*
X117501Y16054D01*
X101393Y12554D02*
X114002D01*
X98393Y15554D02*
X101393Y12554D01*
X155500Y70000D02*
X159500Y66000D01*
Y59847D02*
Y66000D01*
X118128Y59628D02*
X119500Y61000D01*
X123772D01*
X111153Y59628D02*
X118128D01*
X147712Y9640D02*
Y12585D01*
X148298Y9054D02*
X159393D01*
X147712Y9640D02*
X148298Y9054D01*
X146047Y14054D02*
X146244D01*
X147712Y12585D01*
X145850Y14054D02*
X146047D01*
X159393Y9054D02*
X164893Y14554D01*
Y17707D01*
X98393Y15554D02*
Y20554D01*
X96761Y22186D02*
X98393Y20554D01*
X91175Y22186D02*
X96761D01*
X91027Y22333D02*
X91175Y22186D01*
X117501Y16054D02*
X129165D01*
X127893Y27278D02*
Y27554D01*
X107759Y22333D02*
X122948D01*
X127893Y27278D01*
X135622Y16054D02*
X143850D01*
X145850Y14054D01*
X152204Y14590D02*
X152740Y14054D01*
X117500Y53000D02*
X123772D01*
X82495Y57069D02*
X94420D01*
Y48503D02*
Y54510D01*
Y59628D02*
X94568Y59481D01*
X99291D01*
X107771Y51000D01*
X115500D01*
X117500Y53000D01*
X94420Y59628D02*
Y62187D01*
X111153Y57069D02*
Y59628D01*
X102799Y58800D02*
Y60430D01*
Y58800D02*
X106942Y54658D01*
X111005D01*
X111153Y54510D01*
X92500Y46582D02*
X94420Y48503D01*
X92500Y45500D02*
Y46582D01*
X107759Y24893D02*
Y30677D01*
X110000Y32918D01*
Y34000D01*
X107759Y19774D02*
Y22333D01*
X91027D02*
Y24893D01*
X76893Y29054D02*
X94893D01*
X76893D02*
X77165Y29326D01*
Y34554D01*
X94893Y29054D02*
X100393Y23554D01*
Y20054D02*
X103084Y17363D01*
X100393Y20054D02*
Y23554D01*
X103084Y17363D02*
X107612D01*
X107759Y17215D01*
X142154Y43347D02*
X143500Y42000D01*
X158500D01*
X159500Y43000D01*
X142154Y43347D02*
Y47500D01*
X144000Y70000D02*
X155500D01*
X142654Y65000D02*
Y68654D01*
X144000Y70000D01*
X148846Y47500D02*
X149000Y47653D01*
Y64653D02*
X149346Y65000D01*
X136457Y53000D02*
X141957Y47500D01*
X130228Y53000D02*
X136457D01*
X141957Y47500D02*
X142154D01*
X142457Y65000D02*
X142654D01*
X130228Y61000D02*
X138457D01*
X142457Y65000D01*
X83000Y50728D02*
Y56564D01*
X82495Y57069D02*
X83000Y56564D01*
X87405Y45327D02*
X87578Y45500D01*
X83000Y44272D02*
X84055Y45327D01*
X87405D01*
X90728Y71500D02*
X99000D01*
D16*
X256756Y118500D02*
D03*
Y127000D02*
D03*
X251244Y118500D02*
D03*
Y127000D02*
D03*
D17*
X191138Y58205D02*
D03*
X235862Y56236D02*
D03*
Y58205D02*
D03*
Y60173D02*
D03*
Y62142D02*
D03*
Y64110D02*
D03*
Y66079D02*
D03*
Y68047D02*
D03*
Y70016D02*
D03*
Y71984D02*
D03*
Y73953D02*
D03*
Y75921D02*
D03*
Y77890D02*
D03*
Y79858D02*
D03*
Y81827D02*
D03*
Y83795D02*
D03*
Y85764D02*
D03*
X191138D02*
D03*
Y83795D02*
D03*
Y81827D02*
D03*
Y79858D02*
D03*
Y77890D02*
D03*
Y75921D02*
D03*
Y73953D02*
D03*
Y71984D02*
D03*
Y70016D02*
D03*
Y68047D02*
D03*
Y66079D02*
D03*
Y64110D02*
D03*
Y62142D02*
D03*
Y60173D02*
D03*
Y56236D02*
D03*
D18*
X235646Y132000D02*
D03*
X337646Y126000D02*
D03*
Y131000D02*
D03*
Y136000D02*
D03*
Y141000D02*
D03*
X318354Y126000D02*
D03*
Y131000D02*
D03*
Y136000D02*
D03*
Y141000D02*
D03*
X235646Y127000D02*
D03*
Y137000D02*
D03*
Y142000D02*
D03*
X216354Y127000D02*
D03*
Y132000D02*
D03*
Y137000D02*
D03*
Y142000D02*
D03*
D19*
X200705Y93362D02*
D03*
X202673D02*
D03*
X198736Y48638D02*
D03*
X200705D02*
D03*
X202673D02*
D03*
X204642D02*
D03*
X206610D02*
D03*
X210547D02*
D03*
X212516D02*
D03*
X214484D02*
D03*
X216453D02*
D03*
X218421D02*
D03*
X220390D02*
D03*
X222358D02*
D03*
X224327D02*
D03*
X226295D02*
D03*
X228264D02*
D03*
Y93362D02*
D03*
X226295D02*
D03*
X224327D02*
D03*
X222358D02*
D03*
X220390D02*
D03*
X218421D02*
D03*
X216453D02*
D03*
X214484D02*
D03*
X212516D02*
D03*
X210547D02*
D03*
X206610D02*
D03*
X204642D02*
D03*
X198736D02*
D03*
X208579D02*
D03*
Y48638D02*
D03*
D20*
X111153Y54510D02*
D03*
Y57069D02*
D03*
Y59628D02*
D03*
Y62187D02*
D03*
X94420Y54510D02*
D03*
Y57069D02*
D03*
Y59628D02*
D03*
Y62187D02*
D03*
X113866Y88161D02*
D03*
Y90720D02*
D03*
Y93279D02*
D03*
Y95839D02*
D03*
X97134Y88161D02*
D03*
Y90720D02*
D03*
Y93279D02*
D03*
Y95839D02*
D03*
X117366Y125161D02*
D03*
Y127720D02*
D03*
Y130280D02*
D03*
Y132839D02*
D03*
X100634Y125161D02*
D03*
Y127720D02*
D03*
Y130280D02*
D03*
Y132839D02*
D03*
X107759Y17215D02*
D03*
Y19774D02*
D03*
Y22333D02*
D03*
Y24893D02*
D03*
X91027Y17215D02*
D03*
Y19774D02*
D03*
Y22333D02*
D03*
Y24893D02*
D03*
D21*
X303346Y116000D02*
D03*
X296654D02*
D03*
X157846Y84500D02*
D03*
X151154D02*
D03*
X148846Y47500D02*
D03*
X142154D02*
D03*
X150154Y100500D02*
D03*
X156846D02*
D03*
X142654Y65000D02*
D03*
X149346D02*
D03*
X161500Y121000D02*
D03*
X154807D02*
D03*
X152740Y14054D02*
D03*
X146047D02*
D03*
X153307Y136000D02*
D03*
X160000D02*
D03*
X145153Y30000D02*
D03*
X151847D02*
D03*
D22*
X266000Y131346D02*
D03*
Y124653D02*
D03*
X159500Y53154D02*
D03*
Y59847D02*
D03*
X170000Y94653D02*
D03*
Y101347D02*
D03*
X174500Y125654D02*
D03*
Y132346D02*
D03*
X164893Y17707D02*
D03*
Y24400D02*
D03*
D23*
X351000Y137756D02*
D03*
Y132244D02*
D03*
X196102Y130744D02*
D03*
Y136256D02*
D03*
X203500Y135756D02*
D03*
Y130244D02*
D03*
D24*
X383906Y92000D02*
D03*
X372094D02*
D03*
D25*
X399500Y76126D02*
D03*
Y87874D02*
D03*
X349000Y80626D02*
D03*
Y92374D02*
D03*
D26*
X371878Y137000D02*
D03*
Y132000D02*
D03*
Y127000D02*
D03*
Y122000D02*
D03*
X394122Y137000D02*
D03*
Y132000D02*
D03*
Y127000D02*
D03*
Y122000D02*
D03*
D27*
X416031Y103661D02*
D03*
Y106220D02*
D03*
Y108780D02*
D03*
Y111339D02*
D03*
X406969D02*
D03*
Y108780D02*
D03*
Y106220D02*
D03*
Y103661D02*
D03*
D28*
X287500Y104080D02*
D03*
X267500D02*
D03*
Y87920D02*
D03*
X287500D02*
D03*
D29*
X277500Y96000D02*
D03*
D30*
X287638Y77937D02*
D03*
Y70063D02*
D03*
X267362Y77937D02*
D03*
Y70063D02*
D03*
D31*
X380854Y102500D02*
D03*
X375146D02*
D03*
D32*
X304571Y70000D02*
D03*
X298429D02*
D03*
X130071Y53000D02*
D03*
X123929D02*
D03*
X136071Y88000D02*
D03*
X129929D02*
D03*
X86843Y86000D02*
D03*
X80701D02*
D03*
X135571Y99500D02*
D03*
X129429D02*
D03*
X130071Y61000D02*
D03*
X123929D02*
D03*
X84429Y71500D02*
D03*
X90571D02*
D03*
X87571Y105000D02*
D03*
X81429D02*
D03*
X80429Y125500D02*
D03*
X86571D02*
D03*
X135464Y16054D02*
D03*
X129322D02*
D03*
X140571Y126500D02*
D03*
X134429D02*
D03*
X140571Y134500D02*
D03*
X134429D02*
D03*
X134192Y27554D02*
D03*
X128051D02*
D03*
X77322Y34554D02*
D03*
X83464D02*
D03*
X79929Y139000D02*
D03*
X86071D02*
D03*
X427929Y109000D02*
D03*
X434071D02*
D03*
D33*
X410000Y135071D02*
D03*
Y128929D02*
D03*
X417000Y121929D02*
D03*
Y128071D02*
D03*
X83000Y50571D02*
D03*
Y44429D02*
D03*
X80000Y20071D02*
D03*
Y13929D02*
D03*
D34*
X298150Y125500D02*
D03*
Y130500D02*
D03*
Y135500D02*
D03*
Y140500D02*
D03*
X276850D02*
D03*
Y135500D02*
D03*
Y130500D02*
D03*
Y125500D02*
D03*
D35*
X287500Y133000D02*
D03*
D57*
X601000Y96000D02*
X628500Y123500D01*
X601000Y26500D02*
Y96000D01*
X585500Y11000D02*
X601000Y26500D01*
X409500Y11000D02*
X585500D01*
X399500Y21000D02*
X409500Y11000D01*
X399500Y21000D02*
Y76126D01*
X399319Y135228D02*
X410000D01*
X396091Y132000D02*
X399319Y135228D01*
X318354Y136000D02*
X318397Y136043D01*
X324043D02*
X338500Y150500D01*
X318397Y136043D02*
X324043D01*
X338500Y150500D02*
X434500D01*
X410327Y134902D02*
X422280D01*
X429181Y128000D02*
X451500D01*
X422280Y134902D02*
X429181Y128000D01*
X451500D02*
X461500Y138000D01*
X434500Y150500D02*
X447000Y138000D01*
X461500D01*
X607500Y5000D02*
X628500Y26000D01*
X359000Y5000D02*
X607500D01*
X462000Y138500D02*
X533000D01*
X352710Y11291D02*
X359000Y5000D01*
X352710Y11291D02*
Y78331D01*
D58*
X436000Y59500D02*
D03*
Y39500D02*
D03*
Y49500D02*
D03*
Y69500D02*
D03*
Y79500D02*
D03*
X566000Y29500D02*
D03*
X556000D02*
D03*
X546000D02*
D03*
X536000D02*
D03*
X526000D02*
D03*
X516000D02*
D03*
X506000D02*
D03*
X496000D02*
D03*
X486000D02*
D03*
X476000D02*
D03*
X466000D02*
D03*
X456000D02*
D03*
X446000D02*
D03*
X436000D02*
D03*
X566000Y89500D02*
D03*
X556000D02*
D03*
X546000D02*
D03*
X536000D02*
D03*
X526000D02*
D03*
X516000D02*
D03*
X506000D02*
D03*
X496000D02*
D03*
X486000D02*
D03*
X476000D02*
D03*
X466000D02*
D03*
X456000D02*
D03*
X446000D02*
D03*
X436000D02*
D03*
D59*
X461500Y138000D02*
D03*
X325500Y110000D02*
D03*
X434000Y135500D02*
D03*
X479000Y118500D02*
D03*
X312500Y89000D02*
D03*
X170000Y69000D02*
D03*
X187500Y11500D02*
D03*
D60*
X33110Y48103D02*
D03*
D61*
Y57945D02*
D03*
Y67787D02*
D03*
Y77630D02*
D03*
Y87473D02*
D03*
Y97315D02*
D03*
Y107158D02*
D03*
Y117000D02*
D03*
X23268Y48103D02*
D03*
Y57945D02*
D03*
Y67787D02*
D03*
Y77630D02*
D03*
Y87473D02*
D03*
Y97315D02*
D03*
Y107158D02*
D03*
Y117000D02*
D03*
D62*
X207500Y77500D02*
D03*
X110000Y71500D02*
D03*
X262500Y140000D02*
D03*
X362500Y132500D02*
D03*
X566000Y41000D02*
D03*
X110000Y34000D02*
D03*
X195000Y145000D02*
D03*
X116500Y142500D02*
D03*
X100500Y107000D02*
D03*
X210500Y68000D02*
D03*
X101000Y145000D02*
D03*
X223000Y105000D02*
D03*
X89617Y9617D02*
D03*
X287500Y133000D02*
D03*
X361000Y109500D02*
D03*
X313000Y116000D02*
D03*
X278000Y115500D02*
D03*
X101000Y118000D02*
D03*
X555000Y41000D02*
D03*
X92500Y45500D02*
D03*
X99000Y71500D02*
D03*
X152204Y22177D02*
D03*
X203500Y120000D02*
D03*
X149000Y56000D02*
D03*
X157000Y91500D02*
D03*
X162000Y127500D02*
D03*
X95500Y80000D02*
D03*
X89685Y112247D02*
D03*
X209000Y35500D02*
D03*
X254000Y104000D02*
D03*
X162000Y76500D02*
D03*
D63*
X213500Y84500D02*
D03*
X225000Y38500D02*
D03*
X317265Y26265D02*
D03*
X242500Y39500D02*
D03*
X257000Y50000D02*
D03*
X257500Y41500D02*
D03*
X331000Y24000D02*
D03*
X295000Y36500D02*
D03*
X309000Y28144D02*
D03*
X302500Y33000D02*
D03*
X350178Y121322D02*
D03*
X406500Y95000D02*
D03*
X221500Y60500D02*
D03*
X211500Y104425D02*
D03*
X423500Y69500D02*
D03*
X182500Y75500D02*
D03*
X422000Y97500D02*
D03*
X466000Y100000D02*
D03*
X212322Y61178D02*
D03*
X201000Y83000D02*
D03*
X200500Y68500D02*
D03*
X236000Y101000D02*
D03*
X199500Y58500D02*
D03*
X244000Y64000D02*
D03*
X287500Y41454D02*
D03*
X282500Y54500D02*
D03*
D64*
X628500Y26000D02*
D03*
X33500Y19000D02*
D03*
X36500Y141000D02*
D03*
X628500Y123500D02*
D03*
X532500Y111000D02*
D03*
X533000Y138500D02*
D03*
X232000Y22000D02*
D03*
M02*
