G04*
G04 #@! TF.GenerationSoftware,Altium Limited,Altium Designer,22.0.2 (36)*
G04*
G04 Layer_Color=65535*
%FSLAX25Y25*%
%MOIN*%
G70*
G04*
G04 #@! TF.SameCoordinates,DBB72687-BCFA-4FA8-90DC-81D55A498374*
G04*
G04*
G04 #@! TF.FilePolarity,Positive*
G04*
G01*
G75*
%ADD10C,0.00984*%
%ADD11C,0.00787*%
%ADD12C,0.02362*%
%ADD13C,0.00600*%
%ADD14C,0.00500*%
%ADD15C,0.01000*%
G36*
X632498Y74029D02*
Y75688D01*
X632166D01*
Y76020D01*
X632498D01*
Y76353D01*
X638805D01*
Y75025D01*
X638473D01*
Y74029D01*
X638805D01*
Y72701D01*
X639137D01*
Y69713D01*
X638805D01*
Y68717D01*
X638473D01*
Y68053D01*
X638141D01*
Y67721D01*
X637809D01*
Y67389D01*
X637477D01*
Y67057D01*
X637146D01*
Y66725D01*
X636813D01*
Y66393D01*
X636150D01*
Y66062D01*
X635486D01*
Y65729D01*
X634158D01*
Y65398D01*
X631502D01*
Y65729D01*
X630174D01*
Y66062D01*
X629510D01*
Y66393D01*
X628846D01*
Y66725D01*
X628514D01*
Y67057D01*
X628182D01*
Y67389D01*
X627850D01*
Y67721D01*
X627518D01*
Y68053D01*
X627186D01*
Y68385D01*
X626855D01*
Y69381D01*
X626522D01*
Y73033D01*
X626855D01*
Y73697D01*
X627186D01*
Y74361D01*
X627518D01*
Y74693D01*
X627850D01*
Y75025D01*
X628182D01*
Y75357D01*
X629510D01*
Y75025D01*
X629842D01*
Y74693D01*
X630174D01*
Y74361D01*
X630838D01*
Y73365D01*
X630506D01*
Y73033D01*
X630174D01*
Y72701D01*
X629842D01*
Y71705D01*
X629510D01*
Y70709D01*
X629842D01*
Y70045D01*
X630174D01*
Y69381D01*
X630838D01*
Y69049D01*
X631502D01*
Y68717D01*
X634158D01*
Y69049D01*
X634822D01*
Y69381D01*
X635154D01*
Y69713D01*
X635486D01*
Y70045D01*
X635818D01*
Y72701D01*
X635486D01*
Y73033D01*
X632166D01*
Y73697D01*
X632498D01*
Y74029D01*
D02*
G37*
G36*
X632166Y81000D02*
X638805D01*
Y77348D01*
X637809D01*
Y77680D01*
X626522D01*
Y81000D01*
X631834D01*
X632166D01*
D02*
G37*
G36*
X635818Y82660D02*
X634822D01*
Y82328D01*
X630838D01*
Y82660D01*
X629842D01*
Y82992D01*
X629178D01*
Y83324D01*
X628514D01*
Y83656D01*
X628182D01*
Y83988D01*
X627850D01*
Y84320D01*
X627518D01*
Y84652D01*
X627186D01*
Y85316D01*
X626855D01*
Y85979D01*
X626522D01*
Y89631D01*
X626855D01*
Y90627D01*
X627186D01*
Y90959D01*
X627518D01*
Y91291D01*
X627850D01*
Y91623D01*
X628182D01*
Y91955D01*
X628514D01*
Y92287D01*
X629178D01*
Y91955D01*
X629510D01*
Y91623D01*
X630174D01*
Y91291D01*
X630506D01*
Y90959D01*
X630838D01*
Y90295D01*
X630506D01*
Y89963D01*
X630174D01*
Y89299D01*
X629842D01*
Y88635D01*
X629510D01*
Y87639D01*
X629842D01*
Y86643D01*
X630174D01*
Y86312D01*
X630506D01*
Y85979D01*
X631170D01*
Y85647D01*
X631834D01*
Y85316D01*
X633826D01*
Y85647D01*
X634490D01*
Y85979D01*
X635154D01*
Y86312D01*
X635486D01*
Y86975D01*
X635818D01*
Y89631D01*
X635486D01*
Y89963D01*
X633826D01*
Y89631D01*
X632498D01*
Y89963D01*
X632166D01*
Y90295D01*
X632498D01*
Y92619D01*
X632166D01*
Y92951D01*
X632498D01*
Y93283D01*
X633494D01*
Y92951D01*
X637146D01*
Y93283D01*
X638805D01*
Y91955D01*
X638473D01*
Y90627D01*
X638805D01*
Y89631D01*
X639137D01*
Y86312D01*
X638805D01*
Y85647D01*
X638473D01*
Y84984D01*
X638141D01*
Y84320D01*
X637809D01*
Y83988D01*
X637477D01*
Y83656D01*
X636813D01*
Y83324D01*
X636482D01*
Y82992D01*
X635818D01*
Y82660D01*
D02*
G37*
G36*
X639137Y95938D02*
X640465D01*
Y96934D01*
X637477D01*
Y97266D01*
X637146D01*
Y97930D01*
X637477D01*
Y98262D01*
X640465D01*
Y97930D01*
X641129D01*
Y97266D01*
X641461D01*
Y95607D01*
X641129D01*
Y94943D01*
X637146D01*
Y95938D01*
X638805D01*
X639137D01*
D02*
G37*
G36*
X637477Y99922D02*
X638805D01*
Y99590D01*
X640133D01*
Y99922D01*
X640465D01*
Y101250D01*
X641461D01*
Y98926D01*
X641129D01*
Y98594D01*
X637146D01*
Y99590D01*
X637477D01*
Y99922D01*
D02*
G37*
D10*
X461992Y146071D02*
G03*
X461992Y146071I-492J0D01*
G01*
X318847Y144543D02*
G03*
X318847Y144543I-492J0D01*
G01*
X216846Y145543D02*
G03*
X216846Y145543I-492J0D01*
G01*
X94912Y65238D02*
G03*
X94912Y65238I-492J0D01*
G01*
X97626Y98890D02*
G03*
X97626Y98890I-492J0D01*
G01*
X101126Y135890D02*
G03*
X101126Y135890I-492J0D01*
G01*
X91519Y27944D02*
G03*
X91519Y27944I-492J0D01*
G01*
X372370Y140445D02*
G03*
X372370Y140445I-492J0D01*
G01*
X422146Y103661D02*
G03*
X422146Y103661I-492J0D01*
G01*
X293248Y77937D02*
G03*
X293248Y77937I-492J0D01*
G01*
X325992Y118071D02*
G03*
X325992Y118071I-492J0D01*
G01*
X434492Y143571D02*
G03*
X434492Y143571I-492J0D01*
G01*
X479492Y110429D02*
G03*
X479492Y110429I-492J0D01*
G01*
X312992Y97071D02*
G03*
X312992Y97071I-492J0D01*
G01*
X170492Y77071D02*
G03*
X170492Y77071I-492J0D01*
G01*
X187992Y19571D02*
G03*
X187992Y19571I-492J0D01*
G01*
D11*
X199091Y43402D02*
G03*
X199091Y43402I-394J0D01*
G01*
X455988Y143512D02*
X467012D01*
X467012Y132488D02*
Y143512D01*
X455988Y132488D02*
X467012D01*
X455988Y132488D02*
Y143512D01*
X324850Y123658D02*
X331150D01*
X324850Y143342D02*
X331150D01*
Y123658D02*
Y143342D01*
X324850Y123658D02*
Y143342D01*
X222850Y124657D02*
X229150D01*
X222850Y144343D02*
X229150D01*
Y124657D02*
Y144343D01*
X222850Y124657D02*
Y144343D01*
X100129Y52049D02*
X105444D01*
X100129Y64648D02*
X105444D01*
Y52049D02*
Y64648D01*
X100129Y52049D02*
Y64648D01*
X102842Y85701D02*
X108158D01*
X102842Y98299D02*
X108158D01*
Y85701D02*
Y98299D01*
X102842Y85701D02*
Y98299D01*
X106342Y122701D02*
X111658D01*
X106342Y135299D02*
X111658D01*
Y122701D02*
Y135299D01*
X106342Y122701D02*
Y135299D01*
X96736Y14755D02*
X102051D01*
X96736Y27353D02*
X102051D01*
Y14755D02*
Y27353D01*
X96736Y14755D02*
Y27353D01*
X376622Y88653D02*
X379378D01*
X376622Y95346D02*
X379378D01*
X376701Y119658D02*
Y139342D01*
X389299Y119658D02*
Y139342D01*
X376701D02*
X389299D01*
X376701Y119658D02*
X389299D01*
X405988Y100807D02*
X417012D01*
X405988Y114193D02*
X417012D01*
X286949Y80791D02*
Y81087D01*
Y72917D02*
Y75083D01*
Y66913D02*
Y67209D01*
X268051Y66913D02*
X286949D01*
X268051Y80791D02*
Y81087D01*
Y72917D02*
Y75083D01*
Y66913D02*
Y67209D01*
Y81087D02*
X286949D01*
X319988Y115512D02*
X331012D01*
X331012Y104488D02*
Y115512D01*
X319988Y104488D02*
X331012D01*
X319988Y104488D02*
Y115512D01*
X428488Y141012D02*
X439512D01*
X439512Y129988D02*
Y141012D01*
X428488Y129988D02*
X439512D01*
X428488Y129988D02*
Y141012D01*
X473488Y112988D02*
X484512D01*
X473488Y112988D02*
Y124012D01*
X484512D01*
X484512Y112988D02*
Y124012D01*
X306988Y94512D02*
X318012D01*
X318012Y83488D02*
Y94512D01*
X306988Y83488D02*
X318012D01*
X306988Y83488D02*
Y94512D01*
X164488Y74512D02*
X175512D01*
X175512Y63488D02*
Y74512D01*
X164488Y63488D02*
X175512D01*
X164488Y63488D02*
Y74512D01*
X181988Y17012D02*
X193012D01*
X193012Y5988D02*
Y17012D01*
X181988Y5988D02*
X193012D01*
X181988Y5988D02*
Y17012D01*
D12*
X381819Y135406D02*
G03*
X381819Y135406I-1181J0D01*
G01*
D13*
X287800Y117443D02*
G03*
X287800Y117443I-300J0D01*
G01*
X263221Y85658D02*
Y106342D01*
X271466Y85658D02*
X283534D01*
X291779D02*
Y106342D01*
X271466D02*
X283534D01*
X279300Y143150D02*
X295700D01*
X279300Y122850D02*
X295700D01*
D14*
X193421Y50921D02*
X196965D01*
X193421D02*
Y54465D01*
Y87535D02*
Y91079D01*
X196965D01*
X233579Y50921D02*
Y54465D01*
X230035Y50921D02*
X233579D01*
Y87535D02*
Y91079D01*
X230035D02*
X233579D01*
X393791Y80189D02*
Y83811D01*
X405209Y80189D02*
Y83811D01*
X343291Y84689D02*
Y88311D01*
X354709Y84689D02*
Y88311D01*
X33110Y40331D02*
X35610Y34331D01*
X30610D02*
X35610D01*
X30610D02*
X33110Y40331D01*
X34331Y121442D02*
Y123772D01*
Y41331D02*
Y43496D01*
Y52709D02*
Y53503D01*
Y62387D02*
Y63346D01*
Y72229D02*
Y73188D01*
Y82072D02*
Y83031D01*
Y91914D02*
Y92873D01*
Y101757D02*
Y102716D01*
Y111600D02*
Y112558D01*
X431000Y24500D02*
Y94500D01*
Y24500D02*
X573756D01*
X431000Y94500D02*
X573756D01*
Y24500D02*
Y94500D01*
X377685Y100925D02*
X378315D01*
X377685Y104075D02*
X378315D01*
D15*
X74080Y23532D02*
Y27468D01*
X76048D01*
X76704Y26812D01*
Y25500D01*
X76048Y24844D01*
X74080D01*
X75392D02*
X76704Y23532D01*
X78016D02*
X79328D01*
X78672D01*
Y27468D01*
X78016Y26812D01*
X83920Y27468D02*
X82608Y26812D01*
X81296Y25500D01*
Y24188D01*
X81952Y23532D01*
X83264D01*
X83920Y24188D01*
Y24844D01*
X83264Y25500D01*
X81296D01*
X567666Y104867D02*
X568199Y105401D01*
Y106467D01*
X567666Y107000D01*
X565533D01*
X565000Y106467D01*
Y105401D01*
X565533Y104867D01*
X566600D01*
Y105934D01*
X565000Y103801D02*
X568199D01*
X565000Y101668D01*
X568199D01*
Y100602D02*
X565000D01*
Y99003D01*
X565533Y98469D01*
X567666D01*
X568199Y99003D01*
Y100602D01*
X472002Y140501D02*
X474002D01*
X473002D01*
Y146499D01*
X472002Y145499D01*
X481000Y140501D02*
X477001D01*
X481000Y144500D01*
Y145499D01*
X480000Y146499D01*
X478000D01*
X477001Y145499D01*
X482999Y146499D02*
Y142500D01*
X484998Y140501D01*
X486998Y142500D01*
Y146499D01*
X196376Y36468D02*
Y33188D01*
X197032Y32532D01*
X198344D01*
X199000Y33188D01*
Y36468D01*
X200312Y32532D02*
X201624D01*
X200968D01*
Y36468D01*
X200312Y35812D01*
X296720Y98968D02*
Y95688D01*
X297376Y95032D01*
X298688D01*
X299344Y95688D01*
Y98968D01*
X303280Y95032D02*
X300656D01*
X303280Y97656D01*
Y98312D01*
X302624Y98968D01*
X301312D01*
X300656Y98312D01*
X11000Y18001D02*
X12999D01*
X12000D01*
Y22999D01*
X12999Y23999D01*
X13999D01*
X14999Y22999D01*
X9001Y23999D02*
X7001D01*
X8001D01*
Y18001D01*
X9001Y19001D01*
X315720Y151468D02*
Y148188D01*
X316376Y147532D01*
X317688D01*
X318344Y148188D01*
Y151468D01*
X319656Y150812D02*
X320312Y151468D01*
X321624D01*
X322280Y150812D01*
Y150156D01*
X321624Y149500D01*
X320968D01*
X321624D01*
X322280Y148844D01*
Y148188D01*
X321624Y147532D01*
X320312D01*
X319656Y148188D01*
X264344Y118812D02*
X263688Y119468D01*
X262376D01*
X261720Y118812D01*
Y116188D01*
X262376Y115532D01*
X263688D01*
X264344Y116188D01*
X265656Y118812D02*
X266312Y119468D01*
X267624D01*
X268280Y118812D01*
Y118156D01*
X267624Y117500D01*
X268280Y116844D01*
Y116188D01*
X267624Y115532D01*
X266312D01*
X265656Y116188D01*
Y116844D01*
X266312Y117500D01*
X265656Y118156D01*
Y118812D01*
X266312Y117500D02*
X267624D01*
X304344Y107812D02*
X303688Y108468D01*
X302376D01*
X301720Y107812D01*
Y105188D01*
X302376Y104532D01*
X303688D01*
X304344Y105188D01*
X305656Y107812D02*
X306312Y108468D01*
X307624D01*
X308280Y107812D01*
Y107156D01*
X307624Y106500D01*
X306968D01*
X307624D01*
X308280Y105844D01*
Y105188D01*
X307624Y104532D01*
X306312D01*
X305656Y105188D01*
X255220Y148968D02*
Y145688D01*
X255876Y145032D01*
X257188D01*
X257844Y145688D01*
Y148968D01*
X261780D02*
X259156D01*
Y147000D01*
X260468Y147656D01*
X261124D01*
X261780Y147000D01*
Y145688D01*
X261124Y145032D01*
X259812D01*
X259156Y145688D01*
X74752Y144532D02*
Y148468D01*
X76720D01*
X77376Y147812D01*
Y146500D01*
X76720Y145844D01*
X74752D01*
X76064D02*
X77376Y144532D01*
X81312D02*
X78688D01*
X81312Y147156D01*
Y147812D01*
X80656Y148468D01*
X79344D01*
X78688Y147812D01*
X82624D02*
X83280Y148468D01*
X84592D01*
X85248Y147812D01*
Y145188D01*
X84592Y144532D01*
X83280D01*
X82624Y145188D01*
Y147812D01*
X385736Y113968D02*
Y110688D01*
X386392Y110032D01*
X387704D01*
X388360Y110688D01*
Y113968D01*
X389672Y110032D02*
X390984D01*
X390328D01*
Y113968D01*
X389672Y113312D01*
X392952Y110032D02*
X394264D01*
X393608D01*
Y113968D01*
X392952Y113312D01*
X99580Y10468D02*
Y7188D01*
X100236Y6532D01*
X101548D01*
X102204Y7188D01*
Y10468D01*
X103516Y6532D02*
X104828D01*
X104172D01*
Y10468D01*
X103516Y9812D01*
X106796D02*
X107452Y10468D01*
X108764D01*
X109420Y9812D01*
Y7188D01*
X108764Y6532D01*
X107452D01*
X106796Y7188D01*
Y9812D01*
X107220Y141468D02*
Y138188D01*
X107876Y137532D01*
X109188D01*
X109844Y138188D01*
Y141468D01*
X111156Y138188D02*
X111812Y137532D01*
X113124D01*
X113780Y138188D01*
Y140812D01*
X113124Y141468D01*
X111812D01*
X111156Y140812D01*
Y140156D01*
X111812Y139500D01*
X113780D01*
X102720Y82468D02*
Y79188D01*
X103376Y78532D01*
X104688D01*
X105344Y79188D01*
Y82468D01*
X106656Y81812D02*
X107312Y82468D01*
X108624D01*
X109280Y81812D01*
Y81156D01*
X108624Y80500D01*
X109280Y79844D01*
Y79188D01*
X108624Y78532D01*
X107312D01*
X106656Y79188D01*
Y79844D01*
X107312Y80500D01*
X106656Y81156D01*
Y81812D01*
X107312Y80500D02*
X108624D01*
X98220Y49468D02*
Y46188D01*
X98876Y45532D01*
X100188D01*
X100844Y46188D01*
Y49468D01*
X102156D02*
X104780D01*
Y48812D01*
X102156Y46188D01*
Y45532D01*
X212720Y152468D02*
Y149188D01*
X213376Y148532D01*
X214688D01*
X215344Y149188D01*
Y152468D01*
X219280D02*
X217968Y151812D01*
X216656Y150500D01*
Y149188D01*
X217312Y148532D01*
X218624D01*
X219280Y149188D01*
Y149844D01*
X218624Y150500D01*
X216656D01*
X369220Y147468D02*
Y144188D01*
X369876Y143532D01*
X371188D01*
X371844Y144188D01*
Y147468D01*
X375124Y143532D02*
Y147468D01*
X373156Y145500D01*
X375780D01*
X407844Y83032D02*
X409156D01*
X408500D01*
Y86968D01*
X407844Y86312D01*
X298032Y83812D02*
X297376Y84468D01*
X296064D01*
X295408Y83812D01*
Y83156D01*
X296064Y82500D01*
X297376D01*
X298032Y81844D01*
Y81188D01*
X297376Y80532D01*
X296064D01*
X295408Y81188D01*
X299344Y84468D02*
Y80532D01*
X300656Y81844D01*
X301968Y80532D01*
Y84468D01*
X303280Y80532D02*
X304592D01*
X303936D01*
Y84468D01*
X303280Y83812D01*
X420252Y114032D02*
Y117968D01*
X422220D01*
X422876Y117312D01*
Y116000D01*
X422220Y115344D01*
X420252D01*
X421564D02*
X422876Y114032D01*
X426812D02*
X424188D01*
X426812Y116656D01*
Y117312D01*
X426156Y117968D01*
X424844D01*
X424188Y117312D01*
X430748Y114032D02*
X428124D01*
X430748Y116656D01*
Y117312D01*
X430092Y117968D01*
X428780D01*
X428124Y117312D01*
X367408Y107532D02*
Y111468D01*
X369376D01*
X370032Y110812D01*
Y109500D01*
X369376Y108844D01*
X367408D01*
X368720D02*
X370032Y107532D01*
X373968D02*
X371344D01*
X373968Y110156D01*
Y110812D01*
X373312Y111468D01*
X372000D01*
X371344Y110812D01*
X375280Y107532D02*
X376592D01*
X375936D01*
Y111468D01*
X375280Y110812D01*
X87974Y32586D02*
Y36522D01*
X89941D01*
X90597Y35866D01*
Y34554D01*
X89941Y33898D01*
X87974D01*
X89285D02*
X90597Y32586D01*
X91909D02*
X93221D01*
X92565D01*
Y36522D01*
X91909Y35866D01*
X95189Y33242D02*
X95845Y32586D01*
X97157D01*
X97813Y33242D01*
Y35866D01*
X97157Y36522D01*
X95845D01*
X95189Y35866D01*
Y35210D01*
X95845Y34554D01*
X97813D01*
X125974Y32086D02*
Y36022D01*
X127941D01*
X128597Y35366D01*
Y34054D01*
X127941Y33398D01*
X125974D01*
X127286D02*
X128597Y32086D01*
X129909D02*
X131221D01*
X130565D01*
Y36022D01*
X129909Y35366D01*
X133189D02*
X133845Y36022D01*
X135157D01*
X135813Y35366D01*
Y34710D01*
X135157Y34054D01*
X135813Y33398D01*
Y32742D01*
X135157Y32086D01*
X133845D01*
X133189Y32742D01*
Y33398D01*
X133845Y34054D01*
X133189Y34710D01*
Y35366D01*
X133845Y34054D02*
X135157D01*
X133080Y138532D02*
Y142468D01*
X135048D01*
X135704Y141812D01*
Y140500D01*
X135048Y139844D01*
X133080D01*
X134392D02*
X135704Y138532D01*
X137016D02*
X138328D01*
X137672D01*
Y142468D01*
X137016Y141812D01*
X140296Y142468D02*
X142920D01*
Y141812D01*
X140296Y139188D01*
Y138532D01*
X133580Y117032D02*
Y120968D01*
X135548D01*
X136204Y120312D01*
Y119000D01*
X135548Y118344D01*
X133580D01*
X134892D02*
X136204Y117032D01*
X137516D02*
X138828D01*
X138172D01*
Y120968D01*
X137516Y120312D01*
X143420Y120968D02*
X140796D01*
Y119000D01*
X142108Y119656D01*
X142764D01*
X143420Y119000D01*
Y117688D01*
X142764Y117032D01*
X141452D01*
X140796Y117688D01*
X123080Y8532D02*
Y12468D01*
X125048D01*
X125704Y11812D01*
Y10500D01*
X125048Y9844D01*
X123080D01*
X124392D02*
X125704Y8532D01*
X127016D02*
X128328D01*
X127672D01*
Y12468D01*
X127016Y11812D01*
X132264Y8532D02*
Y12468D01*
X130296Y10500D01*
X132920D01*
X76080Y115032D02*
Y118968D01*
X78048D01*
X78704Y118312D01*
Y117000D01*
X78048Y116344D01*
X76080D01*
X77392D02*
X78704Y115032D01*
X80016D02*
X81328D01*
X80672D01*
Y118968D01*
X80016Y118312D01*
X83296D02*
X83952Y118968D01*
X85264D01*
X85920Y118312D01*
Y117656D01*
X85264Y117000D01*
X84608D01*
X85264D01*
X85920Y116344D01*
Y115688D01*
X85264Y115032D01*
X83952D01*
X83296Y115688D01*
X77580Y93532D02*
Y97468D01*
X79548D01*
X80204Y96812D01*
Y95500D01*
X79548Y94844D01*
X77580D01*
X78892D02*
X80204Y93532D01*
X81516D02*
X82828D01*
X82172D01*
Y97468D01*
X81516Y96812D01*
X87420Y93532D02*
X84796D01*
X87420Y96156D01*
Y96812D01*
X86764Y97468D01*
X85452D01*
X84796Y96812D01*
X78758Y60486D02*
X78715Y64421D01*
X80683Y64443D01*
X81346Y63794D01*
X81360Y62482D01*
X80712Y61819D01*
X78744Y61797D01*
X80056Y61812D02*
X81382Y60514D01*
X82694Y60529D02*
X84005Y60543D01*
X83350Y60536D01*
X83306Y64471D01*
X82658Y63808D01*
X85973Y60565D02*
X87285Y60579D01*
X86629Y60572D01*
X86586Y64507D01*
X85937Y63844D01*
X122580Y66032D02*
Y69968D01*
X124548D01*
X125204Y69312D01*
Y68000D01*
X124548Y67344D01*
X122580D01*
X123892D02*
X125204Y66032D01*
X126516D02*
X127828D01*
X127172D01*
Y69968D01*
X126516Y69312D01*
X129796D02*
X130452Y69968D01*
X131764D01*
X132420Y69312D01*
Y66688D01*
X131764Y66032D01*
X130452D01*
X129796Y66688D01*
Y69312D01*
X130720Y103532D02*
Y107468D01*
X132688D01*
X133344Y106812D01*
Y105500D01*
X132688Y104844D01*
X130720D01*
X132032D02*
X133344Y103532D01*
X134656Y104188D02*
X135312Y103532D01*
X136624D01*
X137280Y104188D01*
Y106812D01*
X136624Y107468D01*
X135312D01*
X134656Y106812D01*
Y106156D01*
X135312Y105500D01*
X137280D01*
X72720Y77032D02*
Y80968D01*
X74688D01*
X75344Y80312D01*
Y79000D01*
X74688Y78344D01*
X72720D01*
X74032D02*
X75344Y77032D01*
X76656Y80312D02*
X77312Y80968D01*
X78624D01*
X79280Y80312D01*
Y79656D01*
X78624Y79000D01*
X79280Y78344D01*
Y77688D01*
X78624Y77032D01*
X77312D01*
X76656Y77688D01*
Y78344D01*
X77312Y79000D01*
X76656Y79656D01*
Y80312D01*
X77312Y79000D02*
X78624D01*
X72720Y41032D02*
Y44968D01*
X74688D01*
X75344Y44312D01*
Y43000D01*
X74688Y42344D01*
X72720D01*
X74032D02*
X75344Y41032D01*
X76656Y44968D02*
X79280D01*
Y44312D01*
X76656Y41688D01*
Y41032D01*
X130220Y80032D02*
Y83968D01*
X132188D01*
X132844Y83312D01*
Y82000D01*
X132188Y81344D01*
X130220D01*
X131532D02*
X132844Y80032D01*
X136780Y83968D02*
X135468Y83312D01*
X134156Y82000D01*
Y80688D01*
X134812Y80032D01*
X136124D01*
X136780Y80688D01*
Y81344D01*
X136124Y82000D01*
X134156D01*
X124220Y45032D02*
Y48968D01*
X126188D01*
X126844Y48312D01*
Y47000D01*
X126188Y46344D01*
X124220D01*
X125532D02*
X126844Y45032D01*
X130780Y48968D02*
X128156D01*
Y47000D01*
X129468Y47656D01*
X130124D01*
X130780Y47000D01*
Y45688D01*
X130124Y45032D01*
X128812D01*
X128156Y45688D01*
X421532Y130280D02*
X425468D01*
Y128312D01*
X424812Y127656D01*
X423500D01*
X422844Y128312D01*
Y130280D01*
Y128968D02*
X421532Y127656D01*
Y124376D02*
X425468D01*
X423500Y126344D01*
Y123720D01*
X406775Y120304D02*
Y124240D01*
X408743D01*
X409399Y123584D01*
Y122272D01*
X408743Y121616D01*
X406775D01*
X408087D02*
X409399Y120304D01*
X410711Y123584D02*
X411367Y124240D01*
X412679D01*
X413335Y123584D01*
Y122928D01*
X412679Y122272D01*
X412023D01*
X412679D01*
X413335Y121616D01*
Y120960D01*
X412679Y120304D01*
X411367D01*
X410711Y120960D01*
X299220Y73532D02*
Y77468D01*
X301188D01*
X301844Y76812D01*
Y75500D01*
X301188Y74844D01*
X299220D01*
X300532D02*
X301844Y73532D01*
X305780D02*
X303156D01*
X305780Y76156D01*
Y76812D01*
X305124Y77468D01*
X303812D01*
X303156Y76812D01*
X409003Y149499D02*
X405004D01*
Y146500D01*
X407004Y147500D01*
X408003D01*
X409003Y146500D01*
Y144501D01*
X408003Y143501D01*
X406004D01*
X405004Y144501D01*
X411002Y149499D02*
Y145500D01*
X413002Y143501D01*
X415001Y145500D01*
Y149499D01*
X417000Y147500D02*
Y143501D01*
Y145500D01*
X418000Y146500D01*
X419000Y147500D01*
X419999D01*
X425997Y143501D02*
X423998D01*
X422998Y144501D01*
Y146500D01*
X423998Y147500D01*
X425997D01*
X426997Y146500D01*
Y145500D01*
X422998D01*
X429996Y143501D02*
Y148499D01*
Y146500D01*
X428997D01*
X430996D01*
X429996D01*
Y148499D01*
X430996Y149499D01*
X493001Y119999D02*
X492002Y120999D01*
X490002D01*
X489003Y119999D01*
Y116001D01*
X490002Y115001D01*
X492002D01*
X493001Y116001D01*
Y118000D01*
X491002D01*
X495001Y115001D02*
Y120999D01*
X498999Y115001D01*
Y120999D01*
X500999D02*
Y115001D01*
X503998D01*
X504997Y116001D01*
Y119999D01*
X503998Y120999D01*
X500999D01*
X182550Y23550D02*
Y29548D01*
X185549D01*
X186549Y28548D01*
Y26549D01*
X185549Y25549D01*
X182550D01*
X191547Y23550D02*
Y29548D01*
X188548Y26549D01*
X192547D01*
X150720Y69532D02*
Y73468D01*
X152688D01*
X153344Y72812D01*
Y71500D01*
X152688Y70844D01*
X150720D01*
X154656Y72812D02*
X155312Y73468D01*
X156624D01*
X157280Y72812D01*
Y72156D01*
X156624Y71500D01*
X155968D01*
X156624D01*
X157280Y70844D01*
Y70188D01*
X156624Y69532D01*
X155312D01*
X154656Y70188D01*
X320220Y89532D02*
Y93468D01*
X322188D01*
X322844Y92812D01*
Y91500D01*
X322188Y90844D01*
X320220D01*
X326780Y89532D02*
X324156D01*
X326780Y92156D01*
Y92812D01*
X326124Y93468D01*
X324812D01*
X324156Y92812D01*
X340500Y105999D02*
X336502D01*
Y103000D01*
X338501Y104000D01*
X339501D01*
X340500Y103000D01*
Y101001D01*
X339501Y100001D01*
X337501D01*
X336502Y101001D01*
X342500Y105999D02*
Y102000D01*
X344499Y100001D01*
X346498Y102000D01*
Y105999D01*
X374376Y83812D02*
X373720Y84468D01*
X372408D01*
X371752Y83812D01*
Y81188D01*
X372408Y80532D01*
X373720D01*
X374376Y81188D01*
X377656Y80532D02*
Y84468D01*
X375688Y82500D01*
X378312D01*
X379624Y84468D02*
X382248D01*
Y83812D01*
X379624Y81188D01*
Y80532D01*
X140876Y24812D02*
X140220Y25468D01*
X138908D01*
X138252Y24812D01*
Y22188D01*
X138908Y21532D01*
X140220D01*
X140876Y22188D01*
X144156Y21532D02*
Y25468D01*
X142188Y23500D01*
X144812D01*
X148748Y21532D02*
X146124D01*
X148748Y24156D01*
Y24812D01*
X148092Y25468D01*
X146780D01*
X146124Y24812D01*
X156033Y146461D02*
X155377Y147117D01*
X154066D01*
X153410Y146461D01*
Y143837D01*
X154066Y143181D01*
X155377D01*
X156033Y143837D01*
X159313Y143181D02*
Y147117D01*
X157345Y145149D01*
X159969D01*
X161281Y143181D02*
X162593D01*
X161937D01*
Y147117D01*
X161281Y146461D01*
X169269Y34366D02*
X168613Y35022D01*
X167301D01*
X166646Y34366D01*
Y31742D01*
X167301Y31086D01*
X168613D01*
X169269Y31742D01*
X172549Y31086D02*
Y35022D01*
X170581Y33054D01*
X173205D01*
X174517Y34366D02*
X175173Y35022D01*
X176485D01*
X177141Y34366D01*
Y31742D01*
X176485Y31086D01*
X175173D01*
X174517Y31742D01*
Y34366D01*
X173376Y143312D02*
X172720Y143968D01*
X171408D01*
X170752Y143312D01*
Y140688D01*
X171408Y140032D01*
X172720D01*
X173376Y140688D01*
X174688Y143312D02*
X175344Y143968D01*
X176656D01*
X177312Y143312D01*
Y142656D01*
X176656Y142000D01*
X176000D01*
X176656D01*
X177312Y141344D01*
Y140688D01*
X176656Y140032D01*
X175344D01*
X174688Y140688D01*
X178624D02*
X179280Y140032D01*
X180592D01*
X181248Y140688D01*
Y143312D01*
X180592Y143968D01*
X179280D01*
X178624Y143312D01*
Y142656D01*
X179280Y142000D01*
X181248D01*
X138376Y9312D02*
X137720Y9968D01*
X136408D01*
X135752Y9312D01*
Y6688D01*
X136408Y6032D01*
X137720D01*
X138376Y6688D01*
X139688Y9312D02*
X140344Y9968D01*
X141656D01*
X142312Y9312D01*
Y8656D01*
X141656Y8000D01*
X141000D01*
X141656D01*
X142312Y7344D01*
Y6688D01*
X141656Y6032D01*
X140344D01*
X139688Y6688D01*
X143624Y9312D02*
X144280Y9968D01*
X145592D01*
X146248Y9312D01*
Y8656D01*
X145592Y8000D01*
X146248Y7344D01*
Y6688D01*
X145592Y6032D01*
X144280D01*
X143624Y6688D01*
Y7344D01*
X144280Y8000D01*
X143624Y8656D01*
Y9312D01*
X144280Y8000D02*
X145592D01*
X157876Y113812D02*
X157220Y114468D01*
X155908D01*
X155252Y113812D01*
Y111188D01*
X155908Y110532D01*
X157220D01*
X157876Y111188D01*
X159188Y113812D02*
X159844Y114468D01*
X161156D01*
X161812Y113812D01*
Y113156D01*
X161156Y112500D01*
X160500D01*
X161156D01*
X161812Y111844D01*
Y111188D01*
X161156Y110532D01*
X159844D01*
X159188Y111188D01*
X163124Y114468D02*
X165748D01*
Y113812D01*
X163124Y111188D01*
Y110532D01*
X139876Y74812D02*
X139220Y75468D01*
X137908D01*
X137252Y74812D01*
Y72188D01*
X137908Y71532D01*
X139220D01*
X139876Y72188D01*
X141188Y74812D02*
X141844Y75468D01*
X143156D01*
X143812Y74812D01*
Y74156D01*
X143156Y73500D01*
X142500D01*
X143156D01*
X143812Y72844D01*
Y72188D01*
X143156Y71532D01*
X141844D01*
X141188Y72188D01*
X147748Y75468D02*
X146436Y74812D01*
X145124Y73500D01*
Y72188D01*
X145780Y71532D01*
X147092D01*
X147748Y72188D01*
Y72844D01*
X147092Y73500D01*
X145124D01*
X145376Y94812D02*
X144720Y95468D01*
X143408D01*
X142752Y94812D01*
Y92188D01*
X143408Y91532D01*
X144720D01*
X145376Y92188D01*
X146688Y94812D02*
X147344Y95468D01*
X148656D01*
X149312Y94812D01*
Y94156D01*
X148656Y93500D01*
X148000D01*
X148656D01*
X149312Y92844D01*
Y92188D01*
X148656Y91532D01*
X147344D01*
X146688Y92188D01*
X153248Y95468D02*
X150624D01*
Y93500D01*
X151936Y94156D01*
X152592D01*
X153248Y93500D01*
Y92188D01*
X152592Y91532D01*
X151280D01*
X150624Y92188D01*
X169876Y110312D02*
X169220Y110968D01*
X167908D01*
X167252Y110312D01*
Y107688D01*
X167908Y107032D01*
X169220D01*
X169876Y107688D01*
X171188Y110312D02*
X171844Y110968D01*
X173156D01*
X173812Y110312D01*
Y109656D01*
X173156Y109000D01*
X172500D01*
X173156D01*
X173812Y108344D01*
Y107688D01*
X173156Y107032D01*
X171844D01*
X171188Y107688D01*
X177092Y107032D02*
Y110968D01*
X175124Y109000D01*
X177748D01*
X163876Y48312D02*
X163220Y48968D01*
X161908D01*
X161252Y48312D01*
Y45688D01*
X161908Y45032D01*
X163220D01*
X163876Y45688D01*
X165188Y48312D02*
X165844Y48968D01*
X167156D01*
X167812Y48312D01*
Y47656D01*
X167156Y47000D01*
X166500D01*
X167156D01*
X167812Y46344D01*
Y45688D01*
X167156Y45032D01*
X165844D01*
X165188Y45688D01*
X169124Y48312D02*
X169780Y48968D01*
X171092D01*
X171748Y48312D01*
Y47656D01*
X171092Y47000D01*
X170436D01*
X171092D01*
X171748Y46344D01*
Y45688D01*
X171092Y45032D01*
X169780D01*
X169124Y45688D01*
X143876Y39812D02*
X143220Y40468D01*
X141908D01*
X141252Y39812D01*
Y37188D01*
X141908Y36532D01*
X143220D01*
X143876Y37188D01*
X145188Y39812D02*
X145844Y40468D01*
X147156D01*
X147812Y39812D01*
Y39156D01*
X147156Y38500D01*
X146500D01*
X147156D01*
X147812Y37844D01*
Y37188D01*
X147156Y36532D01*
X145844D01*
X145188Y37188D01*
X151748Y36532D02*
X149124D01*
X151748Y39156D01*
Y39812D01*
X151092Y40468D01*
X149780D01*
X149124Y39812D01*
X152532Y78812D02*
X151876Y79468D01*
X150564D01*
X149908Y78812D01*
Y76188D01*
X150564Y75532D01*
X151876D01*
X152532Y76188D01*
X153844Y78812D02*
X154500Y79468D01*
X155812D01*
X156468Y78812D01*
Y78156D01*
X155812Y77500D01*
X155156D01*
X155812D01*
X156468Y76844D01*
Y76188D01*
X155812Y75532D01*
X154500D01*
X153844Y76188D01*
X157780Y75532D02*
X159092D01*
X158436D01*
Y79468D01*
X157780Y78812D01*
X246876Y137312D02*
X246220Y137968D01*
X244908D01*
X244252Y137312D01*
Y134688D01*
X244908Y134032D01*
X246220D01*
X246876Y134688D01*
X250812Y134032D02*
X248188D01*
X250812Y136656D01*
Y137312D01*
X250156Y137968D01*
X248844D01*
X248188Y137312D01*
X254748Y137968D02*
X253436Y137312D01*
X252124Y136000D01*
Y134688D01*
X252780Y134032D01*
X254092D01*
X254748Y134688D01*
Y135344D01*
X254092Y136000D01*
X252124D01*
X237876Y119812D02*
X237220Y120468D01*
X235908D01*
X235252Y119812D01*
Y117188D01*
X235908Y116532D01*
X237220D01*
X237876Y117188D01*
X241812Y116532D02*
X239188D01*
X241812Y119156D01*
Y119812D01*
X241156Y120468D01*
X239844D01*
X239188Y119812D01*
X245748Y120468D02*
X243124D01*
Y118500D01*
X244436Y119156D01*
X245092D01*
X245748Y118500D01*
Y117188D01*
X245092Y116532D01*
X243780D01*
X243124Y117188D01*
X204188Y144376D02*
X203532Y143720D01*
Y142408D01*
X204188Y141752D01*
X206812D01*
X207468Y142408D01*
Y143720D01*
X206812Y144376D01*
X207468Y148312D02*
Y145688D01*
X204844Y148312D01*
X204188D01*
X203532Y147656D01*
Y146344D01*
X204188Y145688D01*
X207468Y151592D02*
X203532D01*
X205500Y149624D01*
Y152248D01*
X188688Y129376D02*
X188032Y128720D01*
Y127408D01*
X188688Y126752D01*
X191312D01*
X191968Y127408D01*
Y128720D01*
X191312Y129376D01*
X191968Y133312D02*
Y130688D01*
X189344Y133312D01*
X188688D01*
X188032Y132656D01*
Y131344D01*
X188688Y130688D01*
Y134624D02*
X188032Y135280D01*
Y136592D01*
X188688Y137248D01*
X189344D01*
X190000Y136592D01*
Y135936D01*
Y136592D01*
X190656Y137248D01*
X191312D01*
X191968Y136592D01*
Y135280D01*
X191312Y134624D01*
X350204Y146312D02*
X349548Y146968D01*
X348236D01*
X347580Y146312D01*
Y143688D01*
X348236Y143032D01*
X349548D01*
X350204Y143688D01*
X351516Y143032D02*
X352828D01*
X352172D01*
Y146968D01*
X351516Y146312D01*
X354796D02*
X355452Y146968D01*
X356764D01*
X357420Y146312D01*
Y145656D01*
X356764Y145000D01*
X357420Y144344D01*
Y143688D01*
X356764Y143032D01*
X355452D01*
X354796Y143688D01*
Y144344D01*
X355452Y145000D01*
X354796Y145656D01*
Y146312D01*
X355452Y145000D02*
X356764D01*
X336188Y84038D02*
X336844Y84694D01*
X338156D01*
X338812Y84038D01*
Y83382D01*
X338156Y82726D01*
X337500D01*
X338156D01*
X338812Y82070D01*
Y81415D01*
X338156Y80759D01*
X336844D01*
X336188Y81415D01*
M02*
