G04*
G04 #@! TF.GenerationSoftware,Altium Limited,Altium Designer,22.0.2 (36)*
G04*
G04 Layer_Color=8421504*
%FSLAX25Y25*%
%MOIN*%
G70*
G04*
G04 #@! TF.SameCoordinates,DBB72687-BCFA-4FA8-90DC-81D55A498374*
G04*
G04*
G04 #@! TF.FilePolarity,Positive*
G04*
G01*
G75*
%ADD16R,0.03071X0.03898*%
G04:AMPARAMS|DCode=17|XSize=61.42mil|YSize=11.02mil|CornerRadius=1.38mil|HoleSize=0mil|Usage=FLASHONLY|Rotation=0.000|XOffset=0mil|YOffset=0mil|HoleType=Round|Shape=RoundedRectangle|*
%AMROUNDEDRECTD17*
21,1,0.06142,0.00827,0,0,0.0*
21,1,0.05866,0.01102,0,0,0.0*
1,1,0.00276,0.02933,-0.00413*
1,1,0.00276,-0.02933,-0.00413*
1,1,0.00276,-0.02933,0.00413*
1,1,0.00276,0.02933,0.00413*
%
%ADD17ROUNDEDRECTD17*%
%ADD18O,0.09843X0.02756*%
G04:AMPARAMS|DCode=19|XSize=61.42mil|YSize=11.02mil|CornerRadius=1.38mil|HoleSize=0mil|Usage=FLASHONLY|Rotation=270.000|XOffset=0mil|YOffset=0mil|HoleType=Round|Shape=RoundedRectangle|*
%AMROUNDEDRECTD19*
21,1,0.06142,0.00827,0,0,270.0*
21,1,0.05866,0.01102,0,0,270.0*
1,1,0.00276,-0.00413,-0.02933*
1,1,0.00276,-0.00413,0.02933*
1,1,0.00276,0.00413,0.02933*
1,1,0.00276,0.00413,-0.02933*
%
%ADD19ROUNDEDRECTD19*%
%ADD20O,0.08268X0.01772*%
%ADD21R,0.04331X0.03937*%
%ADD22R,0.03937X0.04331*%
%ADD23R,0.03898X0.03071*%
%ADD24R,0.05906X0.07480*%
%ADD25R,0.11457X0.05591*%
G04:AMPARAMS|DCode=26|XSize=25.59mil|YSize=64.96mil|CornerRadius=1.92mil|HoleSize=0mil|Usage=FLASHONLY|Rotation=90.000|XOffset=0mil|YOffset=0mil|HoleType=Round|Shape=RoundedRectangle|*
%AMROUNDEDRECTD26*
21,1,0.02559,0.06112,0,0,90.0*
21,1,0.02175,0.06496,0,0,90.0*
1,1,0.00384,0.03056,0.01088*
1,1,0.00384,0.03056,-0.01088*
1,1,0.00384,-0.03056,-0.01088*
1,1,0.00384,-0.03056,0.01088*
%
%ADD26ROUNDEDRECTD26*%
%ADD27R,0.06915X0.02016*%
%ADD28R,0.05312X0.05924*%
%ADD29R,0.08661X0.13780*%
%ADD30R,0.05709X0.02756*%
%ADD31R,0.02559X0.03543*%
%ADD32R,0.03425X0.03661*%
%ADD33R,0.03661X0.03425*%
%ADD34R,0.05900X0.02200*%
%ADD35R,0.09000X0.09000*%
D16*
X256756Y118500D02*
D03*
Y127000D02*
D03*
X251244Y118500D02*
D03*
Y127000D02*
D03*
D17*
X191138Y58205D02*
D03*
X235862Y56236D02*
D03*
Y58205D02*
D03*
Y60173D02*
D03*
Y62142D02*
D03*
Y64110D02*
D03*
Y66079D02*
D03*
Y68047D02*
D03*
Y70016D02*
D03*
Y71984D02*
D03*
Y73953D02*
D03*
Y75921D02*
D03*
Y77890D02*
D03*
Y79858D02*
D03*
Y81827D02*
D03*
Y83795D02*
D03*
Y85764D02*
D03*
X191138D02*
D03*
Y83795D02*
D03*
Y81827D02*
D03*
Y79858D02*
D03*
Y77890D02*
D03*
Y75921D02*
D03*
Y73953D02*
D03*
Y71984D02*
D03*
Y70016D02*
D03*
Y68047D02*
D03*
Y66079D02*
D03*
Y64110D02*
D03*
Y62142D02*
D03*
Y60173D02*
D03*
Y56236D02*
D03*
D18*
X235646Y132000D02*
D03*
X337646Y126000D02*
D03*
Y131000D02*
D03*
Y136000D02*
D03*
Y141000D02*
D03*
X318354Y126000D02*
D03*
Y131000D02*
D03*
Y136000D02*
D03*
Y141000D02*
D03*
X235646Y127000D02*
D03*
Y137000D02*
D03*
Y142000D02*
D03*
X216354Y127000D02*
D03*
Y132000D02*
D03*
Y137000D02*
D03*
Y142000D02*
D03*
D19*
X200705Y93362D02*
D03*
X202673D02*
D03*
X198736Y48638D02*
D03*
X200705D02*
D03*
X202673D02*
D03*
X204642D02*
D03*
X206610D02*
D03*
X210547D02*
D03*
X212516D02*
D03*
X214484D02*
D03*
X216453D02*
D03*
X218421D02*
D03*
X220390D02*
D03*
X222358D02*
D03*
X224327D02*
D03*
X226295D02*
D03*
X228264D02*
D03*
Y93362D02*
D03*
X226295D02*
D03*
X224327D02*
D03*
X222358D02*
D03*
X220390D02*
D03*
X218421D02*
D03*
X216453D02*
D03*
X214484D02*
D03*
X212516D02*
D03*
X210547D02*
D03*
X206610D02*
D03*
X204642D02*
D03*
X198736D02*
D03*
X208579D02*
D03*
Y48638D02*
D03*
D20*
X111153Y54510D02*
D03*
Y57069D02*
D03*
Y59628D02*
D03*
Y62187D02*
D03*
X94420Y54510D02*
D03*
Y57069D02*
D03*
Y59628D02*
D03*
Y62187D02*
D03*
X113866Y88161D02*
D03*
Y90720D02*
D03*
Y93279D02*
D03*
Y95839D02*
D03*
X97134Y88161D02*
D03*
Y90720D02*
D03*
Y93279D02*
D03*
Y95839D02*
D03*
X117366Y125161D02*
D03*
Y127720D02*
D03*
Y130280D02*
D03*
Y132839D02*
D03*
X100634Y125161D02*
D03*
Y127720D02*
D03*
Y130280D02*
D03*
Y132839D02*
D03*
X107759Y17215D02*
D03*
Y19774D02*
D03*
Y22333D02*
D03*
Y24893D02*
D03*
X91027Y17215D02*
D03*
Y19774D02*
D03*
Y22333D02*
D03*
Y24893D02*
D03*
D21*
X303346Y116000D02*
D03*
X296654D02*
D03*
X157846Y84500D02*
D03*
X151154D02*
D03*
X148846Y47500D02*
D03*
X142154D02*
D03*
X150154Y100500D02*
D03*
X156846D02*
D03*
X142654Y65000D02*
D03*
X149346D02*
D03*
X161500Y121000D02*
D03*
X154807D02*
D03*
X152740Y14054D02*
D03*
X146047D02*
D03*
X153307Y136000D02*
D03*
X160000D02*
D03*
X145153Y30000D02*
D03*
X151847D02*
D03*
D22*
X266000Y131346D02*
D03*
Y124653D02*
D03*
X159500Y53154D02*
D03*
Y59847D02*
D03*
X170000Y94653D02*
D03*
Y101347D02*
D03*
X174500Y125654D02*
D03*
Y132346D02*
D03*
X164893Y17707D02*
D03*
Y24400D02*
D03*
D23*
X351000Y137756D02*
D03*
Y132244D02*
D03*
X196102Y130744D02*
D03*
Y136256D02*
D03*
X203500Y135756D02*
D03*
Y130244D02*
D03*
D24*
X383906Y92000D02*
D03*
X372094D02*
D03*
D25*
X399500Y76126D02*
D03*
Y87874D02*
D03*
X349000Y80626D02*
D03*
Y92374D02*
D03*
D26*
X371878Y137000D02*
D03*
Y132000D02*
D03*
Y127000D02*
D03*
Y122000D02*
D03*
X394122Y137000D02*
D03*
Y132000D02*
D03*
Y127000D02*
D03*
Y122000D02*
D03*
D27*
X416031Y103661D02*
D03*
Y106220D02*
D03*
Y108780D02*
D03*
Y111339D02*
D03*
X406969D02*
D03*
Y108780D02*
D03*
Y106220D02*
D03*
Y103661D02*
D03*
D28*
X287500Y104080D02*
D03*
X267500D02*
D03*
Y87920D02*
D03*
X287500D02*
D03*
D29*
X277500Y96000D02*
D03*
D30*
X287638Y77937D02*
D03*
Y70063D02*
D03*
X267362Y77937D02*
D03*
Y70063D02*
D03*
D31*
X380854Y102500D02*
D03*
X375146D02*
D03*
D32*
X304571Y70000D02*
D03*
X298429D02*
D03*
X130071Y53000D02*
D03*
X123929D02*
D03*
X136071Y88000D02*
D03*
X129929D02*
D03*
X86843Y86000D02*
D03*
X80701D02*
D03*
X135571Y99500D02*
D03*
X129429D02*
D03*
X130071Y61000D02*
D03*
X123929D02*
D03*
X84429Y71500D02*
D03*
X90571D02*
D03*
X87571Y105000D02*
D03*
X81429D02*
D03*
X80429Y125500D02*
D03*
X86571D02*
D03*
X135464Y16054D02*
D03*
X129322D02*
D03*
X140571Y126500D02*
D03*
X134429D02*
D03*
X140571Y134500D02*
D03*
X134429D02*
D03*
X134192Y27554D02*
D03*
X128051D02*
D03*
X77322Y34554D02*
D03*
X83464D02*
D03*
X79929Y139000D02*
D03*
X86071D02*
D03*
X427929Y109000D02*
D03*
X434071D02*
D03*
D33*
X410000Y135071D02*
D03*
Y128929D02*
D03*
X417000Y121929D02*
D03*
Y128071D02*
D03*
X83000Y50571D02*
D03*
Y44429D02*
D03*
X80000Y20071D02*
D03*
Y13929D02*
D03*
D34*
X298150Y125500D02*
D03*
Y130500D02*
D03*
Y135500D02*
D03*
Y140500D02*
D03*
X276850D02*
D03*
Y135500D02*
D03*
Y130500D02*
D03*
Y125500D02*
D03*
D35*
X287500Y133000D02*
D03*
M02*
