M48
;Layer_Color=9474304
;FILE_FORMAT=2:5
INCH,TZ
;TYPE=PLATED
T2F00S00C0.02799
T3F00S00C0.02800
T4F00S00C0.03543
T5F00S00C0.04016
T6F00S00C0.04724
T7F00S00C0.12598
%
T02
X225000Y38500
T03
X423500Y69500
X331000Y24000
X317265Y26265
X309000Y28144
X302500Y33000
X295000Y36500
X287500Y41454
X282500Y54500
X257000Y50000
X257500Y41500
X242500Y39500
X244000Y64000
X221500Y60500
X212322Y61178
X199500Y58500
X200500Y68500
X201000Y83000
X213500Y84500
X211500Y104425
X236000Y101000
X182500Y75500
X350178Y121322
X406500Y95000
X422000Y97500
X466000Y100000
T04
X187500Y11500
X170000Y69000
X312500Y89000
X325500Y110000
X434000Y135500
X461500Y138000
X479000Y118500
T05
X436000Y29500
Y39500
Y49500
Y59500
Y69500
X446000Y29500
X456000
X466000
X476000
X486000
X496000
X506000
X516000
X526000
X536000
X546000
X556000
X566000
Y89500
X556000
X546000
X536000
X526000
X516000
X506000
X496000
X486000
X476000
X466000
X456000
X446000
X436000
Y79500
T06
X23268Y48103
X33110
Y57945
Y67787
X23268
Y57945
Y77630
X33110
Y87473
Y97315
Y107158
Y117000
X23268
Y107158
Y97315
Y87473
T07
X628500Y26000
X232000Y22000
X33500Y19000
X36500Y141000
X533000Y138500
X532500Y111000
X628500Y123500
M30
