G04*
G04 #@! TF.GenerationSoftware,Altium Limited,Altium Designer,22.0.2 (36)*
G04*
G04 Layer_Color=32896*
%FSLAX25Y25*%
%MOIN*%
G70*
G04*
G04 #@! TF.SameCoordinates,DBB72687-BCFA-4FA8-90DC-81D55A498374*
G04*
G04*
G04 #@! TF.FilePolarity,Positive*
G04*
G01*
G75*
%ADD15C,0.01000*%
D15*
X192140Y76312D02*
X192796Y76968D01*
X194108D01*
X194764Y76312D01*
Y73688D01*
X194108Y73032D01*
X192796D01*
X192140Y73688D01*
X190828Y73032D02*
X189516D01*
X190172D01*
Y76968D01*
X190828Y76312D01*
X187548Y73032D02*
X186236D01*
X186892D01*
Y76968D01*
X187548Y76312D01*
X179296Y58312D02*
X179952Y58968D01*
X181264D01*
X181920Y58312D01*
Y55688D01*
X181264Y55032D01*
X179952D01*
X179296Y55688D01*
X177984Y55032D02*
X176672D01*
X177328D01*
Y58968D01*
X177984Y58312D01*
X174704D02*
X174048Y58968D01*
X172736D01*
X172080Y58312D01*
Y55688D01*
X172736Y55032D01*
X174048D01*
X174704Y55688D01*
Y58312D01*
X219124Y65032D02*
Y68968D01*
X217156D01*
X216500Y68312D01*
Y67000D01*
X217156Y66344D01*
X219124D01*
X217812D02*
X216500Y65032D01*
X215188D02*
X213876D01*
X214532D01*
Y68968D01*
X215188Y68312D01*
X125205Y30930D02*
X125861Y30274D01*
Y28962D01*
X125205Y28306D01*
X122581D01*
X121925Y28962D01*
Y30274D01*
X122581Y30930D01*
X121925Y34210D02*
X125861D01*
X123893Y32242D01*
Y34866D01*
X125861Y38802D02*
X125205Y37490D01*
X123893Y36178D01*
X122581D01*
X121925Y36834D01*
Y38146D01*
X122581Y38802D01*
X123237D01*
X123893Y38146D01*
Y36178D01*
X134205Y29930D02*
X134861Y29274D01*
Y27962D01*
X134205Y27306D01*
X131581D01*
X130925Y27962D01*
Y29274D01*
X131581Y29930D01*
X130925Y33210D02*
X134861D01*
X132893Y31242D01*
Y33866D01*
X134861Y37802D02*
Y35178D01*
X132893D01*
X133549Y36490D01*
Y37146D01*
X132893Y37802D01*
X131581D01*
X130925Y37146D01*
Y35834D01*
X131581Y35178D01*
X137312Y117376D02*
X137968Y116720D01*
Y115408D01*
X137312Y114752D01*
X134688D01*
X134032Y115408D01*
Y116720D01*
X134688Y117376D01*
X134032Y120656D02*
X137968D01*
X136000Y118688D01*
Y121312D01*
X134032Y124592D02*
X137968D01*
X136000Y122624D01*
Y125248D01*
X144812Y117376D02*
X145468Y116720D01*
Y115408D01*
X144812Y114752D01*
X142188D01*
X141532Y115408D01*
Y116720D01*
X142188Y117376D01*
X141532Y120656D02*
X145468D01*
X143500Y118688D01*
Y121312D01*
X144812Y122624D02*
X145468Y123280D01*
Y124592D01*
X144812Y125248D01*
X144156D01*
X143500Y124592D01*
Y123936D01*
Y124592D01*
X142844Y125248D01*
X142188D01*
X141532Y124592D01*
Y123280D01*
X142188Y122624D01*
X137688Y85124D02*
X137032Y85780D01*
Y87092D01*
X137688Y87748D01*
X140312D01*
X140968Y87092D01*
Y85780D01*
X140312Y85124D01*
X137688Y83812D02*
X137032Y83156D01*
Y81844D01*
X137688Y81188D01*
X138344D01*
X139000Y81844D01*
Y82500D01*
Y81844D01*
X139656Y81188D01*
X140312D01*
X140968Y81844D01*
Y83156D01*
X140312Y83812D01*
X137688Y79876D02*
X137032Y79220D01*
Y77908D01*
X137688Y77252D01*
X140312D01*
X140968Y77908D01*
Y79220D01*
X140312Y79876D01*
X137688D01*
X130688Y84624D02*
X130032Y85280D01*
Y86592D01*
X130688Y87248D01*
X133312D01*
X133968Y86592D01*
Y85280D01*
X133312Y84624D01*
X133968Y80688D02*
Y83312D01*
X131344Y80688D01*
X130688D01*
X130032Y81344D01*
Y82656D01*
X130688Y83312D01*
X133312Y79376D02*
X133968Y78720D01*
Y77408D01*
X133312Y76752D01*
X130688D01*
X130032Y77408D01*
Y78720D01*
X130688Y79376D01*
X131344D01*
X132000Y78720D01*
Y76752D01*
X105376Y53188D02*
X104720Y52532D01*
X103408D01*
X102752Y53188D01*
Y55812D01*
X103408Y56468D01*
X104720D01*
X105376Y55812D01*
X109312Y56468D02*
X106688D01*
X109312Y53844D01*
Y53188D01*
X108656Y52532D01*
X107344D01*
X106688Y53188D01*
X110624D02*
X111280Y52532D01*
X112592D01*
X113248Y53188D01*
Y53844D01*
X112592Y54500D01*
X113248Y55156D01*
Y55812D01*
X112592Y56468D01*
X111280D01*
X110624Y55812D01*
Y55156D01*
X111280Y54500D01*
X110624Y53844D01*
Y53188D01*
X111280Y54500D02*
X112592D01*
X141376Y52688D02*
X140720Y52032D01*
X139408D01*
X138752Y52688D01*
Y55312D01*
X139408Y55968D01*
X140720D01*
X141376Y55312D01*
X145312Y55968D02*
X142688D01*
X145312Y53344D01*
Y52688D01*
X144656Y52032D01*
X143344D01*
X142688Y52688D01*
X146624Y52032D02*
X149248D01*
Y52688D01*
X146624Y55312D01*
Y55968D01*
X245312Y106704D02*
X245968Y106048D01*
Y104736D01*
X245312Y104080D01*
X242688D01*
X242032Y104736D01*
Y106048D01*
X242688Y106704D01*
X242032Y108016D02*
Y109328D01*
Y108672D01*
X245968D01*
X245312Y108016D01*
X245968Y111296D02*
Y113920D01*
X245312D01*
X242688Y111296D01*
X242032D01*
X171296Y88812D02*
X171952Y89468D01*
X173264D01*
X173920Y88812D01*
Y86188D01*
X173264Y85532D01*
X171952D01*
X171296Y86188D01*
X169984Y85532D02*
X168672D01*
X169328D01*
Y89468D01*
X169984Y88812D01*
X164080Y89468D02*
X165392Y88812D01*
X166704Y87500D01*
Y86188D01*
X166048Y85532D01*
X164736D01*
X164080Y86188D01*
Y86844D01*
X164736Y87500D01*
X166704D01*
X183188Y35796D02*
X182532Y36452D01*
Y37764D01*
X183188Y38420D01*
X185812D01*
X186468Y37764D01*
Y36452D01*
X185812Y35796D01*
X186468Y34484D02*
Y33172D01*
Y33828D01*
X182532D01*
X183188Y34484D01*
X182532Y28580D02*
Y31204D01*
X184500D01*
X183844Y29892D01*
Y29236D01*
X184500Y28580D01*
X185812D01*
X186468Y29236D01*
Y30548D01*
X185812Y31204D01*
X189688Y35796D02*
X189032Y36452D01*
Y37764D01*
X189688Y38420D01*
X192312D01*
X192968Y37764D01*
Y36452D01*
X192312Y35796D01*
X192968Y34484D02*
Y33172D01*
Y33828D01*
X189032D01*
X189688Y34484D01*
X192968Y29236D02*
X189032D01*
X191000Y31204D01*
Y28580D01*
X174688Y35796D02*
X174032Y36452D01*
Y37764D01*
X174688Y38420D01*
X177312D01*
X177968Y37764D01*
Y36452D01*
X177312Y35796D01*
X177968Y34484D02*
Y33172D01*
Y33828D01*
X174032D01*
X174688Y34484D01*
Y31204D02*
X174032Y30548D01*
Y29236D01*
X174688Y28580D01*
X175344D01*
X176000Y29236D01*
Y29892D01*
Y29236D01*
X176656Y28580D01*
X177312D01*
X177968Y29236D01*
Y30548D01*
X177312Y31204D01*
X192344Y82188D02*
X191688Y81532D01*
X190376D01*
X189720Y82188D01*
Y84812D01*
X190376Y85468D01*
X191688D01*
X192344Y84812D01*
X193656Y81532D02*
X196280D01*
Y82188D01*
X193656Y84812D01*
Y85468D01*
X213656Y77812D02*
X214312Y78468D01*
X215624D01*
X216280Y77812D01*
Y75188D01*
X215624Y74532D01*
X214312D01*
X213656Y75188D01*
X209720Y78468D02*
X211032Y77812D01*
X212344Y76500D01*
Y75188D01*
X211688Y74532D01*
X210376D01*
X209720Y75188D01*
Y75844D01*
X210376Y76500D01*
X212344D01*
X197156Y103312D02*
X197812Y103968D01*
X199124D01*
X199780Y103312D01*
Y100688D01*
X199124Y100032D01*
X197812D01*
X197156Y100688D01*
X193220Y103968D02*
X195844D01*
Y102000D01*
X194532Y102656D01*
X193876D01*
X193220Y102000D01*
Y100688D01*
X193876Y100032D01*
X195188D01*
X195844Y100688D01*
X226656Y94312D02*
X227312Y94968D01*
X228624D01*
X229280Y94312D01*
Y91688D01*
X228624Y91032D01*
X227312D01*
X226656Y91688D01*
X223376Y91032D02*
Y94968D01*
X225344Y93000D01*
X222720D01*
X211156Y36812D02*
X211812Y37468D01*
X213124D01*
X213780Y36812D01*
Y34188D01*
X213124Y33532D01*
X211812D01*
X211156Y34188D01*
X207220Y33532D02*
X209844D01*
X207220Y36156D01*
Y36812D01*
X207876Y37468D01*
X209188D01*
X209844Y36812D01*
X209500Y26688D02*
X208844Y26032D01*
X207532D01*
X206876Y26688D01*
Y29312D01*
X207532Y29968D01*
X208844D01*
X209500Y29312D01*
X210812Y29968D02*
X212124D01*
X211468D01*
Y26032D01*
X210812Y26688D01*
M02*
