G04*
G04 #@! TF.GenerationSoftware,Altium Limited,Altium Designer,22.0.2 (36)*
G04*
G04 Layer_Color=16711935*
%FSLAX25Y25*%
%MOIN*%
G70*
G04*
G04 #@! TF.SameCoordinates,DBB72687-BCFA-4FA8-90DC-81D55A498374*
G04*
G04*
G04 #@! TF.FilePolarity,Positive*
G04*
G01*
G75*
%ADD11C,0.00787*%
%ADD14C,0.00500*%
%ADD15C,0.01000*%
%ADD83C,0.00394*%
%ADD84C,0.00100*%
%ADD85C,0.00000*%
%ADD86C,0.00400*%
%ADD87C,0.00300*%
D11*
X199091Y43402D02*
G03*
X199091Y43402I-394J0D01*
G01*
D14*
X193421Y50921D02*
Y91079D01*
X233579D01*
Y50921D02*
Y91079D01*
X193421Y50921D02*
X233579D01*
X230654Y108228D02*
Y111772D01*
Y108228D02*
X237347D01*
Y111772D01*
X230654D02*
X237347D01*
X393791Y89284D02*
X405209D01*
X393791Y74717D02*
X405209D01*
Y89284D01*
X393791Y74717D02*
Y89284D01*
X343291Y93783D02*
X354709D01*
X343291Y79216D02*
X354709D01*
Y93783D01*
X343291Y79216D02*
Y93783D01*
X33110Y40331D02*
X35610Y34331D01*
X30610D02*
X35610D01*
X30610D02*
X33110Y40331D01*
X34362Y41331D02*
Y123772D01*
X431000Y24500D02*
Y94500D01*
Y24500D02*
X573756D01*
X431000Y94500D02*
X573756D01*
Y24500D02*
Y94500D01*
X374850Y100925D02*
X381150D01*
X374850Y104075D02*
X381150D01*
Y100925D02*
Y104075D01*
X374850Y100925D02*
Y104075D01*
X231150Y65150D02*
Y68850D01*
X224850Y65150D02*
Y68850D01*
X231150D01*
X224850Y65150D02*
X231150D01*
X298153Y68228D02*
Y71772D01*
X304847Y68228D02*
Y71772D01*
X298153D02*
X304847D01*
X298153Y68228D02*
X304847D01*
X408228Y128654D02*
X411772D01*
X408228Y135346D02*
X411772D01*
X408228Y128654D02*
Y135346D01*
X411772Y128654D02*
Y135346D01*
X415228Y128347D02*
X418772D01*
X415228Y121653D02*
X418772D01*
Y128347D01*
X415228Y121653D02*
Y128347D01*
X123653Y51228D02*
Y54772D01*
X130347Y51228D02*
Y54772D01*
X123653D02*
X130347D01*
X123653Y51228D02*
X130347D01*
X129654Y86228D02*
Y89772D01*
X136346Y86228D02*
Y89772D01*
X129654D02*
X136346D01*
X129654Y86228D02*
X136346D01*
X81228Y44153D02*
X84772D01*
X81228Y50846D02*
X84772D01*
X81228Y44153D02*
Y50846D01*
X84772Y44153D02*
Y50846D01*
X80425Y84228D02*
Y87772D01*
X87118Y84228D02*
Y87772D01*
X80425D02*
X87118D01*
X80425Y84228D02*
X87118D01*
X129154Y97728D02*
Y101272D01*
X135846Y97728D02*
Y101272D01*
X129154D02*
X135846D01*
X129154Y97728D02*
X135846D01*
X123653Y59228D02*
Y62772D01*
X130347Y59228D02*
Y62772D01*
X123653D02*
X130347D01*
X123653Y59228D02*
X130347D01*
X90847Y69728D02*
Y73272D01*
X84153Y69728D02*
Y73272D01*
Y69728D02*
X90847D01*
X84153Y73272D02*
X90847D01*
X81154Y103228D02*
Y106772D01*
X87846Y103228D02*
Y106772D01*
X81154D02*
X87846D01*
X81154Y103228D02*
X87846D01*
X86847Y123728D02*
Y127272D01*
X80154Y123728D02*
Y127272D01*
Y123728D02*
X86847D01*
X80154Y127272D02*
X86847D01*
X129047Y14282D02*
Y17826D01*
X135740Y14282D02*
Y17826D01*
X129047D02*
X135740D01*
X129047Y14282D02*
X135740D01*
X134153Y124728D02*
Y128272D01*
X140847Y124728D02*
Y128272D01*
X134153D02*
X140847D01*
X134153Y124728D02*
X140847D01*
X78228Y13654D02*
X81772D01*
X78228Y20346D02*
X81772D01*
X78228Y13654D02*
Y20346D01*
X81772Y13654D02*
Y20346D01*
X134153Y132728D02*
Y136272D01*
X140847Y132728D02*
Y136272D01*
X134153D02*
X140847D01*
X134153Y132728D02*
X140847D01*
X127775Y25782D02*
Y29326D01*
X134468Y25782D02*
Y29326D01*
X127775D02*
X134468D01*
X127775Y25782D02*
X134468D01*
X83740Y32782D02*
Y36326D01*
X77047Y32782D02*
Y36326D01*
Y32782D02*
X83740D01*
X77047Y36326D02*
X83740D01*
X86347Y137228D02*
Y140772D01*
X79654Y137228D02*
Y140772D01*
Y137228D02*
X86347D01*
X79654Y140772D02*
X86347D01*
X434346Y107228D02*
Y110772D01*
X427654Y107228D02*
Y110772D01*
Y107228D02*
X434346D01*
X427654Y110772D02*
X434346D01*
D15*
X567666Y104867D02*
X568199Y105401D01*
Y106467D01*
X567666Y107000D01*
X565533D01*
X565000Y106467D01*
Y105401D01*
X565533Y104867D01*
X566600D01*
Y105934D01*
X565000Y103801D02*
X568199D01*
X565000Y101668D01*
X568199D01*
Y100602D02*
X565000D01*
Y99003D01*
X565533Y98469D01*
X567666D01*
X568199Y99003D01*
Y100602D01*
D83*
X325638Y139799D02*
G03*
X325638Y139799I-1969J0D01*
G01*
X223638Y140799D02*
G03*
X223638Y140799I-1969J0D01*
G01*
X101999Y61105D02*
G03*
X101999Y61105I-1969J0D01*
G01*
X104713Y94756D02*
G03*
X104713Y94756I-1969J0D01*
G01*
X108213Y131756D02*
G03*
X108213Y131756I-1969J0D01*
G01*
X98606Y23810D02*
G03*
X98606Y23810I-1969J0D01*
G01*
X380638Y135799D02*
G03*
X380638Y135799I-1969J0D01*
G01*
X320126Y123658D02*
X335874D01*
X320126Y143342D02*
X335874D01*
Y123658D02*
Y143342D01*
X320126Y123658D02*
Y143342D01*
X218126Y124657D02*
X233874D01*
X218126Y144343D02*
X233874D01*
Y124657D02*
Y144343D01*
X218126Y124657D02*
Y144343D01*
X96487Y52049D02*
X109086D01*
X96487Y64648D02*
X109086D01*
Y52049D02*
Y64648D01*
X96487Y52049D02*
Y64648D01*
X99201Y85701D02*
X111799D01*
X99201Y98299D02*
X111799D01*
Y85701D02*
Y98299D01*
X99201Y85701D02*
Y98299D01*
X102701Y122701D02*
X115299D01*
X102701Y135299D02*
X115299D01*
Y122701D02*
Y135299D01*
X102701Y122701D02*
Y135299D01*
X93094Y14755D02*
X105692D01*
X93094Y27353D02*
X105692D01*
Y14755D02*
Y27353D01*
X93094Y14755D02*
Y27353D01*
X197350Y33906D02*
X203650D01*
Y37095D01*
X197350D02*
X203650D01*
X197350Y33906D02*
Y37095D01*
X196850Y29594D02*
X203150D01*
X196850Y26406D02*
Y29594D01*
Y26406D02*
X203150D01*
Y29594D01*
X222350Y84405D02*
X228650D01*
Y87594D01*
X222350D02*
X228650D01*
X222350Y84405D02*
Y87594D01*
X188350Y97594D02*
X194650D01*
X188350Y94406D02*
Y97594D01*
Y94406D02*
X194650D01*
Y97594D01*
X222350Y79594D02*
X228650D01*
X222350Y76406D02*
Y79594D01*
Y76406D02*
X228650D01*
Y79594D01*
X189850Y87906D02*
X196150D01*
Y91094D01*
X189850D02*
X196150D01*
X189850Y87906D02*
Y91094D01*
X181850Y64595D02*
X188150D01*
X181850Y61405D02*
Y64595D01*
Y61405D02*
X188150D01*
Y64595D01*
X180850Y67405D02*
X187150D01*
Y70595D01*
X180850D02*
X187150D01*
X180850Y67405D02*
Y70595D01*
X177594Y41350D02*
Y47650D01*
X174406D02*
X177594D01*
X174406Y41350D02*
Y47650D01*
Y41350D02*
X177594D01*
X184850Y44594D02*
X191150D01*
X184850Y41405D02*
Y44594D01*
Y41405D02*
X191150D01*
Y44594D01*
X184850Y48406D02*
X191150D01*
Y51595D01*
X184850D02*
X191150D01*
X184850Y48406D02*
Y51595D01*
X176406Y80850D02*
Y87150D01*
Y80850D02*
X179595D01*
Y87150D01*
X176406D02*
X179595D01*
X352594Y131850D02*
Y138150D01*
X349406Y131850D02*
X352594D01*
X349406D02*
Y138150D01*
X352594D01*
X194508Y130350D02*
Y136650D01*
X197697D01*
Y130350D02*
Y136650D01*
X194508Y130350D02*
X197697D01*
X205095Y129850D02*
Y136150D01*
X201905Y129850D02*
X205095D01*
X201905D02*
Y136150D01*
X205095D01*
X250850Y120095D02*
X257150D01*
Y116905D02*
Y120095D01*
X250850Y116905D02*
X257150D01*
X250850D02*
Y120095D01*
Y125406D02*
X257150D01*
X250850D02*
Y128595D01*
X257150D01*
Y125406D02*
Y128595D01*
X131905Y54850D02*
Y61150D01*
Y54850D02*
X135094D01*
Y61150D01*
X131905D02*
X135094D01*
X120905Y54850D02*
Y61150D01*
Y54850D02*
X124094D01*
Y61150D01*
X120905D02*
X124094D01*
X130405Y91350D02*
Y97650D01*
Y91350D02*
X133595D01*
Y97650D01*
X130405D02*
X133595D01*
X137406Y91350D02*
Y97650D01*
Y91350D02*
X140594D01*
Y97650D01*
X137406D02*
X140594D01*
X141405Y129350D02*
Y135650D01*
Y129350D02*
X144595D01*
Y135650D01*
X141405D02*
X144595D01*
X134406Y128850D02*
Y135150D01*
Y128850D02*
X137594D01*
Y135150D01*
X134406D02*
X137594D01*
X131299Y17404D02*
Y23704D01*
Y17404D02*
X134488D01*
Y23704D01*
X131299D02*
X134488D01*
X123299Y17904D02*
Y24204D01*
Y17904D02*
X126488D01*
Y24204D01*
X123299D02*
X126488D01*
X384693Y88457D02*
Y95543D01*
X371307Y88457D02*
Y95543D01*
Y88457D02*
X384693D01*
X371307Y95543D02*
X384693D01*
X375126Y119658D02*
Y139342D01*
X390874Y119658D02*
Y139342D01*
X375126D02*
X390874D01*
X375126Y119658D02*
X390874D01*
X414650Y101791D02*
Y113209D01*
X408350D02*
X414650D01*
X408350Y101791D02*
Y113209D01*
Y101791D02*
X414650D01*
D84*
X263720Y86158D02*
Y105842D01*
Y86158D02*
X291280D01*
Y105842D01*
X263720D02*
X291280D01*
X295200Y124500D02*
Y126500D01*
Y124500D02*
X299700D01*
Y126500D01*
X295200D02*
X299700D01*
X295200Y129500D02*
Y131500D01*
Y129500D02*
X299700D01*
Y131500D01*
X295200D02*
X299700D01*
X295200Y134500D02*
Y136500D01*
Y134500D02*
X299700D01*
Y136500D01*
X295200D02*
X299700D01*
X295200Y139500D02*
Y141500D01*
Y139500D02*
X299700D01*
Y141500D01*
X295200D02*
X299700D01*
X279800Y139500D02*
Y141500D01*
X275300D02*
X279800D01*
X275300Y139500D02*
Y141500D01*
Y139500D02*
X279800D01*
Y134500D02*
Y136500D01*
X275300D02*
X279800D01*
X275300Y134500D02*
Y136500D01*
Y134500D02*
X279800D01*
Y129500D02*
Y131500D01*
X275300D02*
X279800D01*
X275300Y129500D02*
Y131500D01*
Y129500D02*
X279800D01*
Y124500D02*
Y126500D01*
X275300D02*
X279800D01*
X275300Y124500D02*
Y126500D01*
Y124500D02*
X279800D01*
Y142650D02*
X295200D01*
X279800Y123350D02*
Y142650D01*
Y123350D02*
X295200D01*
Y142650D01*
D85*
X291280Y97200D02*
G03*
X291280Y94800I0J-1200D01*
G01*
X288700Y123350D02*
G03*
X286300Y123350I-1200J0D01*
G01*
D86*
X298598Y114299D02*
X301402D01*
X298598Y117650D02*
X301402D01*
X267701Y126598D02*
Y129402D01*
X264350Y126598D02*
Y129402D01*
X153098Y82799D02*
X155902D01*
X153098Y86150D02*
X155902D01*
X144098Y45799D02*
X146902D01*
X144098Y49150D02*
X146902D01*
X157799Y55098D02*
Y57902D01*
X161150Y55098D02*
Y57902D01*
X168299Y96598D02*
Y99402D01*
X171650Y96598D02*
Y99402D01*
X152098Y102201D02*
X154902D01*
X152098Y98850D02*
X154902D01*
X144598Y66701D02*
X147402D01*
X144598Y63350D02*
X147402D01*
X156752Y119299D02*
X159555D01*
X156752Y122650D02*
X159555D01*
X147992Y12353D02*
X150795D01*
X147992Y15704D02*
X150795D01*
X172799Y127598D02*
Y130402D01*
X176150Y127598D02*
Y130402D01*
X163192Y19652D02*
Y22456D01*
X166543Y19652D02*
Y22456D01*
X155252Y137701D02*
X158055D01*
X155252Y134350D02*
X158055D01*
X147098Y31701D02*
X149902D01*
X147098Y28350D02*
X149902D01*
D87*
X411500Y105002D02*
Y109167D01*
X410667Y110000D01*
X409001D01*
X408168Y109167D01*
Y105002D01*
X406502Y110000D02*
X404836D01*
X405669D01*
Y105002D01*
X406502Y105835D01*
X402336Y110000D02*
X400670D01*
X401503D01*
Y105002D01*
X402336Y105835D01*
X294950Y124485D02*
X291618Y127817D01*
X294950D02*
X291618Y124485D01*
X294950Y126151D02*
X291618D01*
X293284Y127817D02*
Y124485D01*
M02*
