G04*
G04 #@! TF.GenerationSoftware,Altium Limited,Altium Designer,22.0.2 (36)*
G04*
G04 Layer_Color=255*
%FSLAX25Y25*%
%MOIN*%
G70*
G04*
G04 #@! TF.SameCoordinates,DBB72687-BCFA-4FA8-90DC-81D55A498374*
G04*
G04*
G04 #@! TF.FilePolarity,Positive*
G04*
G01*
G75*
%ADD16R,0.03071X0.03898*%
%ADD23R,0.03898X0.03071*%
%ADD58C,0.06024*%
%ADD59R,0.05906X0.05906*%
%ADD60R,0.06693X0.06693*%
%ADD61C,0.06693*%
G04:AMPARAMS|DCode=79|XSize=36.61mil|YSize=36.61mil|CornerRadius=9.15mil|HoleSize=0mil|Usage=FLASHONLY|Rotation=0.000|XOffset=0mil|YOffset=0mil|HoleType=Round|Shape=RoundedRectangle|*
%AMROUNDEDRECTD79*
21,1,0.03661,0.01831,0,0,0.0*
21,1,0.01831,0.03661,0,0,0.0*
1,1,0.01831,0.00915,-0.00915*
1,1,0.01831,-0.00915,-0.00915*
1,1,0.01831,-0.00915,0.00915*
1,1,0.01831,0.00915,0.00915*
%
%ADD79ROUNDEDRECTD79*%
%ADD80R,0.03189X0.03858*%
D16*
X197744Y35500D02*
D03*
X203256D02*
D03*
X202756Y28000D02*
D03*
X197244D02*
D03*
X222744Y86000D02*
D03*
X228256D02*
D03*
X194256Y96000D02*
D03*
X188744D02*
D03*
X228256Y78000D02*
D03*
X222744D02*
D03*
X190244Y89500D02*
D03*
X195756D02*
D03*
X187756Y63000D02*
D03*
X182244D02*
D03*
X181244Y69000D02*
D03*
X186756D02*
D03*
X190756Y43000D02*
D03*
X185244D02*
D03*
Y50000D02*
D03*
X190756D02*
D03*
D23*
X176000Y41744D02*
D03*
Y47256D02*
D03*
X178000Y86756D02*
D03*
Y81244D02*
D03*
X133500Y60756D02*
D03*
Y55244D02*
D03*
X122500Y60756D02*
D03*
Y55244D02*
D03*
X132000Y97256D02*
D03*
Y91744D02*
D03*
X139000Y97256D02*
D03*
Y91744D02*
D03*
X143000Y135256D02*
D03*
Y129744D02*
D03*
X136000Y134756D02*
D03*
Y129244D02*
D03*
X132893Y23310D02*
D03*
Y17798D02*
D03*
X124893Y23810D02*
D03*
Y18298D02*
D03*
D58*
X436000Y59500D02*
D03*
Y39500D02*
D03*
Y49500D02*
D03*
Y69500D02*
D03*
Y79500D02*
D03*
X566000Y29500D02*
D03*
X556000D02*
D03*
X546000D02*
D03*
X536000D02*
D03*
X526000D02*
D03*
X516000D02*
D03*
X506000D02*
D03*
X496000D02*
D03*
X486000D02*
D03*
X476000D02*
D03*
X466000D02*
D03*
X456000D02*
D03*
X446000D02*
D03*
X436000D02*
D03*
X566000Y89500D02*
D03*
X556000D02*
D03*
X546000D02*
D03*
X536000D02*
D03*
X526000D02*
D03*
X516000D02*
D03*
X506000D02*
D03*
X496000D02*
D03*
X486000D02*
D03*
X476000D02*
D03*
X466000D02*
D03*
X456000D02*
D03*
X446000D02*
D03*
X436000D02*
D03*
D59*
X461500Y138000D02*
D03*
X325500Y110000D02*
D03*
X434000Y135500D02*
D03*
X479000Y118500D02*
D03*
X312500Y89000D02*
D03*
X170000Y69000D02*
D03*
X187500Y11500D02*
D03*
D60*
X33110Y48103D02*
D03*
D61*
Y57945D02*
D03*
Y67787D02*
D03*
Y77630D02*
D03*
Y87473D02*
D03*
Y97315D02*
D03*
Y107158D02*
D03*
Y117000D02*
D03*
X23268Y48103D02*
D03*
Y57945D02*
D03*
Y67787D02*
D03*
Y77630D02*
D03*
Y87473D02*
D03*
Y97315D02*
D03*
Y107158D02*
D03*
Y117000D02*
D03*
D79*
X231047Y110000D02*
D03*
X236953D02*
D03*
D80*
X224965Y67000D02*
D03*
X231035D02*
D03*
M02*
