G04*
G04 #@! TF.GenerationSoftware,Altium Limited,Altium Designer,22.0.2 (36)*
G04*
G04 Layer_Color=65535*
%FSLAX25Y25*%
%MOIN*%
G70*
G04*
G04 #@! TF.SameCoordinates,123502C9-EB5C-4286-84A1-43EA48080DB4*
G04*
G04*
G04 #@! TF.FilePolarity,Positive*
G04*
G01*
G75*
%ADD10C,0.00787*%
%ADD11C,0.00500*%
%ADD12C,0.01000*%
D10*
X226693Y413307D02*
X231555D01*
X226693Y408445D02*
Y413307D01*
X258445D02*
X263307D01*
Y408445D02*
Y413307D01*
X226693Y376693D02*
X231555D01*
X226693D02*
Y381555D01*
X260876Y376693D02*
X263307Y379124D01*
X258445Y376693D02*
X260876D01*
X263307Y379124D02*
Y381555D01*
X213500Y375000D02*
X223500D01*
X213500D02*
Y415000D01*
X223500Y375000D02*
Y415000D01*
X213500D02*
X223500D01*
D11*
X208772Y380067D02*
Y380933D01*
X205228Y380067D02*
Y380933D01*
X204728Y410567D02*
Y411433D01*
X208272Y410567D02*
Y411433D01*
D12*
X272188Y409204D02*
X271532Y408548D01*
Y407236D01*
X272188Y406580D01*
X274812D01*
X275468Y407236D01*
Y408548D01*
X274812Y409204D01*
X275468Y410516D02*
Y411828D01*
Y411172D01*
X271532D01*
X272188Y410516D01*
X275468Y416420D02*
Y413796D01*
X272844Y416420D01*
X272188D01*
X271532Y415764D01*
Y414452D01*
X272188Y413796D01*
M02*
