G04*
G04 #@! TF.GenerationSoftware,Altium Limited,Altium Designer,22.0.2 (36)*
G04*
G04 Layer_Physical_Order=1*
G04 Layer_Color=255*
%FSLAX25Y25*%
%MOIN*%
G70*
G04*
G04 #@! TF.SameCoordinates,123502C9-EB5C-4286-84A1-43EA48080DB4*
G04*
G04*
G04 #@! TF.FilePolarity,Positive*
G04*
G01*
G75*
%ADD12C,0.01000*%
%ADD13O,0.03740X0.12205*%
%ADD14O,0.03740X0.09055*%
%ADD15O,0.09055X0.03740*%
%ADD16R,0.03898X0.03071*%
%ADD17R,0.03661X0.03110*%
%ADD26C,0.05906*%
%ADD27R,0.05906X0.05906*%
%ADD28C,0.08268*%
D12*
X276063Y419000D02*
X280000Y415063D01*
X276063Y373000D02*
X280000Y376937D01*
X195500Y415063D02*
X199437Y419000D01*
X195500Y376937D02*
X199437Y373000D01*
X276063D01*
X199437Y419000D02*
X276063D01*
X280000Y376937D02*
Y415063D01*
X195500Y376937D02*
Y415063D01*
X215500Y404000D02*
Y406500D01*
X206500Y414228D02*
X207555Y413173D01*
X208827D01*
X215500Y406500D01*
X267000Y389342D02*
Y409965D01*
Y389342D02*
X272087Y384256D01*
X267000Y380000D02*
Y385975D01*
X268256Y378744D02*
X272500D01*
X267000Y380000D02*
X268256Y378744D01*
X262975Y390000D02*
X267000Y385975D01*
X266414Y410551D02*
X267000Y409965D01*
X255000Y410551D02*
X266414D01*
X259285Y390000D02*
X260551Y391266D01*
Y390000D02*
X262975D01*
X262449Y379449D02*
X266398Y375500D01*
X276414D02*
X277000Y376086D01*
X266398Y375500D02*
X276414D01*
X277000Y376086D02*
Y382914D01*
X273256Y383500D02*
X276414D01*
X277000Y382914D01*
X272500Y384256D02*
X273256Y383500D01*
X272087Y384256D02*
X272500D01*
X255000Y379449D02*
X262449D01*
X211886Y388614D02*
X213500Y390228D01*
X208331Y385059D02*
X211886Y388614D01*
X216000Y384500D02*
X219297D01*
X211886Y388614D02*
X216000Y384500D01*
X260551Y395000D02*
X260646Y394905D01*
X259285Y390000D02*
X260551D01*
X247500Y389500D02*
X250000Y387000D01*
X232848Y405000D02*
X234889Y402959D01*
X240065D01*
X215500Y404000D02*
X217750Y401750D01*
X218500Y401000D01*
Y400000D02*
Y401000D01*
X207772Y384500D02*
X208047D01*
X208331Y384784D02*
Y385059D01*
X208047Y384500D02*
X208331Y384784D01*
X207000Y383728D02*
X207772Y384500D01*
X213500Y390228D02*
Y402500D01*
X217750Y401750D02*
X221500Y405500D01*
X207389Y406882D02*
X209118D01*
X206500Y407772D02*
X207389Y406882D01*
X209118D02*
X213500Y402500D01*
X226500Y385000D02*
X232106D01*
X221500Y380000D02*
X226500Y385000D01*
X218500Y380000D02*
X221500D01*
Y405500D02*
X224483D01*
X213272Y377272D02*
X213547Y377547D01*
X216047D01*
X218500Y380000D01*
X207000Y377272D02*
X213272D01*
X221219Y415219D02*
X223000Y417000D01*
X221219Y413578D02*
Y415219D01*
X218500Y410858D02*
X221219Y413578D01*
X218500Y410000D02*
Y410858D01*
X240000Y410551D02*
Y416414D01*
X239414Y417000D02*
X240000Y416414D01*
X223000Y417000D02*
X239414D01*
X220293Y394293D02*
X221000Y395000D01*
X220293Y393120D02*
Y394293D01*
X218500Y391327D02*
X220293Y393120D01*
X218500Y390000D02*
Y391327D01*
X221000Y395000D02*
X229449D01*
X219297Y384500D02*
X222953Y388156D01*
Y388953D02*
X224000Y390000D01*
X222953Y388156D02*
Y388953D01*
X229449Y405000D02*
X232848D01*
X228924Y405524D02*
X229449Y405000D01*
X251459Y402959D02*
X254476Y405976D01*
X240065Y402959D02*
X251459D01*
X240065D02*
X245000Y407894D01*
X254476Y405976D02*
Y409135D01*
X255000Y409659D01*
X241394Y389500D02*
X247500D01*
X235883Y383989D02*
X241394Y389500D01*
X235000Y382106D02*
Y382848D01*
X235883Y383731D01*
Y383989D01*
X235000Y379449D02*
Y382106D01*
X253000Y390000D02*
X259285D01*
X250000Y387000D02*
X253000Y390000D01*
X250000Y379449D02*
Y387000D01*
X224000Y390000D02*
X229449D01*
X255000Y409659D02*
Y410551D01*
X245000Y407894D02*
Y410551D01*
X232106Y385000D02*
X235000Y382106D01*
X260551Y391266D02*
Y395000D01*
X224483Y405524D02*
X228924D01*
D13*
X245000Y381024D02*
D03*
D14*
X250000Y379449D02*
D03*
X255000D02*
D03*
X240000D02*
D03*
X235000D02*
D03*
Y410551D02*
D03*
X240000D02*
D03*
X245000D02*
D03*
X250000D02*
D03*
X255000D02*
D03*
D15*
X229449Y385000D02*
D03*
Y390000D02*
D03*
Y395000D02*
D03*
Y400000D02*
D03*
Y405000D02*
D03*
X260551D02*
D03*
Y400000D02*
D03*
Y395000D02*
D03*
Y390000D02*
D03*
Y385000D02*
D03*
D16*
X272500Y378744D02*
D03*
Y384256D02*
D03*
D17*
X207000Y383728D02*
D03*
Y377272D02*
D03*
X206500Y407772D02*
D03*
Y414228D02*
D03*
D26*
X218500Y410000D02*
D03*
Y400000D02*
D03*
Y390000D02*
D03*
D27*
Y380000D02*
D03*
D28*
X274000Y396500D02*
D03*
X202500D02*
D03*
M02*
