G04*
G04 #@! TF.GenerationSoftware,Altium Limited,Altium Designer,22.0.2 (36)*
G04*
G04 Layer_Color=255*
%FSLAX25Y25*%
%MOIN*%
G70*
G04*
G04 #@! TF.SameCoordinates,123502C9-EB5C-4286-84A1-43EA48080DB4*
G04*
G04*
G04 #@! TF.FilePolarity,Positive*
G04*
G01*
G75*
%ADD13O,0.03740X0.12205*%
%ADD14O,0.03740X0.09055*%
%ADD15O,0.09055X0.03740*%
%ADD16R,0.03898X0.03071*%
%ADD17R,0.03661X0.03110*%
%ADD26C,0.05906*%
%ADD27R,0.05906X0.05906*%
D13*
X245000Y381024D02*
D03*
D14*
X250000Y379449D02*
D03*
X255000D02*
D03*
X240000D02*
D03*
X235000D02*
D03*
Y410551D02*
D03*
X240000D02*
D03*
X245000D02*
D03*
X250000D02*
D03*
X255000D02*
D03*
D15*
X229449Y385000D02*
D03*
Y390000D02*
D03*
Y395000D02*
D03*
Y400000D02*
D03*
Y405000D02*
D03*
X260551D02*
D03*
Y400000D02*
D03*
Y395000D02*
D03*
Y390000D02*
D03*
Y385000D02*
D03*
D16*
X272500Y378744D02*
D03*
Y384256D02*
D03*
D17*
X207000Y383728D02*
D03*
Y377272D02*
D03*
X206500Y407772D02*
D03*
Y414228D02*
D03*
D26*
X218500Y410000D02*
D03*
Y400000D02*
D03*
Y390000D02*
D03*
D27*
Y380000D02*
D03*
M02*
